<?xml version="1.0" standalone="no"?>
<!DOCTYPE svg PUBLIC "-//W3C//DTD SVG 20010904//EN"
 "http://www.w3.org/TR/2001/REC-SVG-20010904/DTD/svg10.dtd">
<svg version="1.0" xmlns="http://www.w3.org/2000/svg"
 width="1000.000000pt" height="232.000000pt" viewBox="0 0 1000.000000 232.000000"
 preserveAspectRatio="xMidYMid meet">

<g transform="translate(0.000000,232.000000) scale(0.100000,-0.100000)"
fill="#283630" stroke="none">
<path d="M480 2305 c0 -17 -16 -20 -25 -5 -3 6 -22 10 -41 10 -19 0 -34 -4
-34 -10 0 -5 7 -10 16 -10 14 0 14 -3 4 -15 -7 -8 -23 -15 -37 -15 -20 0 -23
4 -18 19 5 18 3 19 -24 11 -104 -29 -211 -125 -265 -234 -36 -72 -61 -190 -53
-243 4 -27 4 -27 12 -5 4 12 16 22 26 22 20 0 26 -15 9 -25 -6 -3 -10 -19 -10
-36 0 -32 -14 -38 -29 -11 -8 12 -10 -4 -10 -63 0 -72 1 -78 14 -61 8 11 18
17 21 13 4 -4 1 -13 -6 -22 -8 -10 -9 -15 -1 -15 6 0 11 -5 11 -11 0 -6 -9 -8
-20 -4 -17 5 -20 2 -20 -22 0 -19 3 -24 9 -14 5 8 11 9 15 3 8 -14 -4 -43 -15
-36 -5 3 -9 -188 -8 -458 0 -255 3 -457 6 -450 8 20 22 14 43 -20 23 -38 12
-68 -25 -68 -22 0 -25 -4 -25 -39 0 -63 27 -177 56 -233 47 -92 189 -220 229
-204 7 2 16 -1 18 -8 5 -13 95 -41 104 -33 2 2 8 18 12 35 7 25 6 30 -5 25 -8
-3 -17 3 -21 13 -4 11 -2 19 7 22 7 3 -2 10 -20 16 -18 6 -36 17 -38 25 -3 10
0 12 13 7 10 -4 28 0 41 9 27 18 31 35 9 35 -8 0 -15 5 -15 10 0 16 40 12 46
-5 4 -8 14 -15 23 -15 14 -1 13 -3 -3 -15 -17 -13 -17 -15 -3 -21 25 -9 21
-34 -5 -35 l-23 0 23 -9 c22 -9 31 -40 12 -40 -5 0 -10 -9 -10 -19 0 -11 -5
-23 -10 -26 -35 -22 26 -25 484 -25 l495 0 3 27 c4 39 28 42 28 3 l0 -31 270
3 c148 1 270 6 270 10 0 4 -17 8 -37 10 -32 3 -38 6 -37 26 1 23 0 23 -22 -5
-21 -25 -23 -26 -24 -7 0 11 -5 25 -12 32 -17 17 -1 27 18 11 14 -11 17 -10
25 4 6 9 15 17 20 17 6 0 7 -4 4 -10 -3 -5 0 -7 9 -4 8 3 12 12 9 20 -7 18 27
19 47 2 12 -11 12 -10 1 4 -15 20 -42 23 -57 8 -7 -7 -16 -4 -28 9 -14 15 -15
24 -6 40 15 29 48 26 82 -6 24 -23 29 -24 44 -12 13 11 18 11 21 2 3 -7 11
-13 20 -13 26 0 9 -34 -22 -45 -16 -5 -37 -17 -46 -26 -13 -13 -14 -19 -3 -34
7 -10 11 -22 8 -26 -3 -5 2 -9 11 -9 13 0 14 4 5 20 -8 14 -7 25 2 40 20 31
29 24 22 -18 l-6 -39 101 -1 101 -1 0 31 c0 31 0 31 21 12 13 -12 19 -14 17
-5 -2 7 3 16 10 18 16 6 16 -29 0 -45 -9 -9 2 -12 49 -12 52 0 61 3 66 19 6
23 -15 35 -32 18 -8 -8 -16 -5 -31 11 -12 12 -32 22 -45 22 -29 0 -41 16 -26
34 9 10 6 17 -13 30 -23 15 -25 14 -31 -4 -4 -11 -13 -20 -21 -20 -21 0 -17
14 13 46 22 24 24 29 10 32 -22 4 -21 15 3 37 14 13 23 15 33 7 7 -6 26 -16
42 -22 29 -11 29 -11 10 9 -10 12 -13 21 -7 21 7 0 12 3 12 8 0 4 -24 5 -54 4
-42 -3 -53 -7 -49 -18 3 -9 -2 -14 -16 -14 -12 0 -21 6 -21 15 0 10 -10 15
-30 15 -17 0 -30 -5 -30 -12 0 -8 -3 -9 -11 -1 -11 11 -69 -36 -69 -57 0 -6
-4 -8 -10 -5 -15 10 -12 36 7 50 26 19 8 31 -44 30 -26 0 -154 -2 -284 -3
l-236 -2 -6 -38 c-8 -48 -31 -81 -47 -66 -7 8 -7 19 3 42 7 18 16 29 20 25 4
-3 7 -2 7 4 0 14 -20 29 -45 35 -15 4 -21 0 -21 -13 0 -11 4 -19 8 -19 4 0 8
-4 8 -10 0 -21 -28 -9 -34 15 -7 27 -24 32 -45 13 -11 -10 -14 -10 -18 0 -3 9
-43 12 -151 12 -121 0 -148 -3 -164 -17 -17 -15 -18 -15 -18 0 0 13 -10 17
-47 18 -27 0 -63 2 -80 3 -27 2 -31 0 -21 -12 10 -11 8 -17 -7 -28 -28 -21
-50 -13 -50 16 0 24 -1 25 -60 22 -33 -2 -66 -9 -73 -14 -8 -8 -12 -7 -12 3 0
11 -23 14 -103 14 -86 1 -110 4 -145 23 -23 12 -41 18 -41 14 4 -26 -1 -34
-16 -22 -8 7 -15 18 -15 24 -1 6 -14 27 -30 46 -29 33 -43 67 -18 42 20 -20
30 -14 16 10 -10 18 -14 180 -16 746 -3 806 -4 793 63 865 19 21 35 44 35 51
0 13 41 56 53 56 4 0 7 -11 7 -24 l0 -24 152 5 c139 5 153 7 171 27 l19 21 -5
-22 c-4 -17 0 -23 11 -24 10 0 170 -1 357 -2 313 -2 341 -1 341 15 0 9 -5 16
-10 15 -12 -2 -30 119 -21 142 5 12 10 11 28 -7 19 -19 20 -24 7 -32 -12 -7
-12 -12 -2 -22 16 -16 16 -45 0 -51 -10 -4 -10 -6 0 -6 6 -1 12 -7 12 -15 0
-38 19 -41 231 -36 112 3 206 3 209 0 3 -3 100 -5 217 -5 206 0 212 1 210 20
-1 11 -11 25 -22 30 -25 13 -27 58 -2 63 12 2 17 -3 17 -17 0 -12 6 -21 15
-21 16 0 38 -34 28 -44 -3 -3 -1 -6 5 -6 20 0 14 24 -13 52 l-25 27 19 31 c21
35 30 29 35 -25 4 -48 12 -53 41 -25 14 13 31 20 39 17 24 -9 19 -21 -14 -35
-28 -13 -29 -15 -16 -40 l14 -27 163 2 c90 1 196 3 236 3 56 0 71 3 67 13 -3
8 2 20 11 27 19 16 20 31 1 24 -24 -9 -28 14 -6 36 23 23 55 27 47 6 -3 -7 -2
-17 3 -22 11 -13 0 -74 -14 -74 -8 0 -8 -3 1 -8 6 -4 58 -4 115 0 56 3 105 3
108 0 8 -10 829 -8 823 2 -7 10 18 27 30 19 4 -2 4 -10 -2 -16 -7 -9 1 -12 30
-12 30 0 39 4 39 18 0 21 18 23 26 2 5 -13 36 -15 194 -15 l187 0 9 32 c5 17
15 33 23 36 10 3 12 -4 7 -34 -7 -39 -7 -39 26 -37 18 1 68 2 111 2 52 1 76 5
72 11 -7 11 11 40 24 40 4 0 11 -12 17 -28 9 -23 16 -27 45 -25 19 1 84 2 146
2 l111 1 22 46 c21 42 62 75 76 61 4 -3 -3 -26 -15 -50 -29 -61 -28 -71 10
-63 17 3 96 6 174 6 l143 0 6 25 c8 33 25 32 32 -3 5 -26 9 -28 52 -25 26 1
77 2 115 2 64 1 67 2 67 25 0 14 4 27 9 30 10 6 21 -16 21 -43 0 -14 10 -16
78 -13 42 3 79 8 82 11 3 4 13 10 23 14 12 5 17 1 17 -12 0 -19 -7 -19 148 -8
28 2 52 1 52 -3 0 -12 583 0 598 12 9 8 19 8 37 -2 13 -7 30 -10 38 -7 8 3 18
3 21 -1 13 -12 116 -8 116 6 0 16 17 16 23 -1 3 -7 6 -8 6 -1 1 6 -10 27 -23
47 -13 19 -22 37 -20 40 3 2 -2 10 -11 17 -36 30 -2 41 41 14 14 -10 23 -22
20 -29 -2 -7 6 -18 18 -24 12 -7 30 -27 40 -46 17 -30 20 -32 49 -24 20 6 33
5 37 -2 4 -5 20 -8 36 -5 16 2 41 5 57 5 27 1 27 1 12 31 -11 21 -23 30 -41
30 -26 0 -54 20 -54 40 0 6 -7 22 -16 35 -8 13 -14 34 -12 47 2 19 9 23 33 21
23 -2 33 3 41 22 l12 24 -114 0 c-126 0 -137 -7 -88 -56 14 -14 23 -31 20 -39
-5 -14 -37 -19 -49 -8 -12 12 -87 11 -87 -2 0 -6 -7 -15 -16 -18 -13 -5 -14
-9 -4 -21 16 -20 4 -32 -18 -19 -22 13 -72 111 -72 141 0 14 -6 23 -16 23 -10
0 -14 -6 -11 -15 4 -8 3 -16 -1 -19 -12 -7 -53 14 -47 24 7 11 -67 15 -78 4
-3 -3 -1 -14 6 -25 15 -24 2 -36 -20 -18 -15 11 -15 10 1 -9 18 -20 18 -22 1
-22 -12 0 -15 -5 -11 -16 6 -16 -22 -74 -36 -74 -10 0 -10 47 0 53 4 3 5 30 4
61 l-4 56 -82 0 -83 0 5 -30 c3 -22 10 -30 24 -30 17 0 18 -3 8 -15 -10 -12
-10 -15 1 -15 9 0 10 -3 2 -11 -7 -7 -17 -8 -29 -1 -34 17 -43 4 -23 -36 19
-37 19 -37 -1 -46 -26 -12 -36 -1 -43 47 -5 30 -2 40 14 50 12 7 19 23 19 41
0 23 -3 26 -13 17 -8 -6 -17 -8 -21 -4 -4 4 -9 -3 -13 -15 -6 -26 -33 -30 -33
-4 0 9 -7 25 -14 35 -12 16 -30 18 -155 16 -114 -1 -141 -4 -141 -15 0 -8 -10
-14 -25 -14 -26 0 -34 15 -12 23 6 3 -13 6 -44 6 -61 1 -94 -18 -71 -41 14
-14 16 -58 2 -58 -15 0 -30 35 -30 69 l0 31 -68 0 -68 0 4 -67 c4 -56 2 -69
-14 -80 -39 -28 -94 -3 -68 32 32 44 43 63 49 88 l7 28 -251 -1 -251 -1 0 -27
c0 -15 -4 -33 -9 -41 -14 -22 -31 -3 -31 35 l0 34 -150 0 -150 0 0 -64 c0
-106 -26 -150 -73 -124 l-22 11 22 10 c28 12 35 60 18 122 l-14 50 0 -55 c-2
-88 -30 -114 -32 -29 -2 77 -3 79 -70 79 -33 0 -58 -3 -56 -7 6 -9 -20 -163
-28 -172 -22 -22 -28 113 -8 166 5 12 -22 14 -158 11 l-164 -3 -5 -29 c-8 -44
-30 -45 -30 -1 l0 36 -321 -1 c-258 -1 -318 -4 -310 -14 8 -9 6 -17 -7 -30
-22 -19 -32 -12 -32 21 0 24 -1 24 -99 22 -76 -1 -98 -4 -95 -14 3 -7 1 -16
-5 -20 -6 -3 -11 -24 -11 -46 0 -45 -16 -51 -30 -13 -8 21 -6 34 9 60 21 35
12 48 -11 16 -22 -31 -38 -36 -35 -10 1 18 -4 24 -22 26 -15 2 -28 -3 -33 -12
-12 -21 -62 -22 -54 -1 3 8 2 15 -3 15 -5 0 -11 -10 -15 -22 l-6 -23 -18 23
-18 23 -422 -2 -422 -1 0 -22 -1 -21 -18 23 c-14 15 -30 22 -55 22 l-37 0 20
-22 c27 -28 36 -57 23 -70 -15 -15 -42 -2 -42 20 0 11 -7 25 -15 32 -8 7 -15
19 -15 27 0 11 -14 14 -65 11 -36 -2 -65 -6 -65 -10 0 -5 7 -8 15 -8 8 0 15
-6 15 -13 0 -8 11 -19 25 -25 32 -15 35 -47 3 -39 -27 8 -69 -28 -61 -50 4
-11 0 -14 -13 -11 -35 6 -27 35 18 62 40 24 41 26 17 26 -16 0 -30 7 -33 17
-6 15 -8 15 -16 3 -7 -12 -15 -9 -44 19 -39 38 -63 36 -68 -5 -5 -43 -28 -42
-28 1 l0 36 -201 -2 c-197 -1 -201 -2 -230 -26 -16 -14 -29 -31 -29 -40 0 -21
-44 -12 -48 11 -2 11 0 16 6 12 6 -3 23 5 39 18 l28 24 -472 2 c-419 1 -473
-1 -473 -15z m1660 -10 c0 -8 -4 -15 -10 -15 -5 0 -10 7 -10 15 0 8 5 15 10
15 6 0 10 -7 10 -15z m5060 0 c0 -8 -4 -15 -9 -15 -5 0 -11 -9 -14 -21 -6 -22
-27 -18 -27 6 0 15 27 45 41 45 5 0 9 -7 9 -15z m-6380 -18 c0 -23 -73 -111
-84 -100 -3 3 -6 19 -6 35 0 15 -4 28 -10 28 -5 0 -10 12 -10 26 0 33 32 30
40 -4 6 -27 23 -31 28 -7 2 9 -5 23 -15 30 -16 13 -15 14 20 15 32 0 37 -3 37
-23z m530 8 c-12 -15 -30 -12 -30 6 0 5 10 9 21 9 18 0 19 -2 9 -15z m1050 11
c0 -3 -4 -16 -10 -30 -11 -29 -50 -37 -50 -10 0 8 4 13 9 9 6 -3 15 4 21 15 9
17 30 28 30 16z m1570 -31 c-14 -26 -30 -33 -30 -13 0 14 31 50 38 43 3 -3 -1
-16 -8 -30z m616 -2 c-3 -21 -6 -46 -6 -55 0 -10 -7 -18 -16 -18 -14 0 -16 8
-10 46 7 51 12 64 28 64 7 0 8 -14 4 -37z m1064 12 c0 -8 -4 -17 -10 -20 -6
-4 -10 5 -10 20 0 15 4 24 10 20 6 -3 10 -12 10 -20z m-2135 -25 c19 -43 14
-63 -10 -39 -18 17 -32 79 -18 79 6 0 18 -18 28 -40z m2840 13 c22 -27 24 -43
5 -43 -7 0 -40 55 -40 67 0 9 13 0 35 -24z m-295 -44 c0 -16 -17 -36 -25 -28
-1 2 -6 24 -9 49 l-7 45 21 -24 c11 -13 20 -31 20 -42z m-3530 37 c0 -8 3 -21
6 -30 3 -9 1 -16 -5 -16 -13 0 -31 41 -24 53 7 12 23 8 23 -7z m170 10 c0 -2
-3 -11 -6 -20 -9 -23 -24 -20 -24 4 0 11 7 20 15 20 8 0 15 -2 15 -4z m-744
-30 c8 -14 14 -35 12 -48 -4 -32 -54 -32 -76 0 -14 22 -14 23 7 29 16 4 20 11
16 24 -9 28 21 24 41 -5z m-436 -12 c0 -8 -4 -12 -10 -9 -5 3 -10 10 -10 16 0
5 5 9 10 9 6 0 10 -7 10 -16z m650 1 c-12 -15 -30 -12 -30 6 0 5 10 9 21 9 18
0 19 -2 9 -15z m1900 1 c0 -16 -18 -31 -27 -22 -8 8 5 36 17 36 5 0 10 -6 10
-14z m-1710 -6 c0 -9 -31 -30 -45 -30 -3 0 -1 9 5 20 11 20 40 28 40 10z
m1900 -20 c0 -42 -26 -100 -44 -100 -20 0 -20 9 0 76 17 60 44 75 44 24z
m-250 -4 c0 -8 -7 -19 -15 -26 -13 -10 -15 -9 -15 12 0 14 3 28 6 31 9 9 24
-2 24 -17z m1176 13 c9 -16 -18 -30 -33 -17 -7 6 -10 14 -7 19 7 13 31 11 40
-2z m-1828 -11 c15 -15 16 -58 2 -58 -5 0 -10 9 -10 19 0 11 -4 23 -10 26 -12
7 -13 25 -2 25 4 0 13 -5 20 -12z m792 -14 c0 -8 -7 -14 -15 -14 -15 0 -21 21
-9 33 10 9 24 -2 24 -19z m1480 -39 c0 -28 -24 -60 -38 -51 -15 9 -15 46 -1
83 10 27 11 27 25 9 8 -11 14 -29 14 -41z m-4464 34 c3 -6 1 -16 -5 -22 -7 -7
-5 -14 7 -23 15 -11 12 -13 -20 -19 -21 -4 -42 -13 -49 -21 -17 -20 -29 -17
-29 7 0 12 8 23 20 26 11 3 20 10 20 16 0 13 30 47 41 47 4 0 11 -5 15 -11z
m1557 -1 c3 -10 9 -10 25 -1 21 13 32 8 32 -14 0 -13 -36 -18 -64 -7 -9 3 -16
12 -16 20 0 17 17 18 23 2z m3125 -12 c3 -12 -1 -17 -10 -14 -7 3 -15 13 -16
22 -3 12 1 17 10 14 7 -3 15 -13 16 -22z m1351 11 c6 -8 8 -17 4 -20 -7 -8
-33 11 -33 24 0 13 16 11 29 -4z m-4959 -1 c0 -3 -7 -12 -16 -21 -13 -13 -14
-18 -3 -31 10 -12 9 -18 -3 -31 -9 -8 -21 -12 -27 -9 -18 11 -13 54 9 76 18
18 40 27 40 16z m4610 -32 c0 -8 -4 -12 -10 -9 -5 3 -10 13 -10 21 0 8 5 12
10 9 6 -3 10 -13 10 -21z m-6332 -37 c-2 -12 -7 -22 -13 -22 -12 0 -19 41 -10
63 6 16 7 16 16 -1 6 -10 9 -28 7 -40z m6272 12 c0 -19 -5 -29 -15 -29 -15 0
-22 50 -9 63 12 12 24 -4 24 -34z m-5390 16 c0 -8 -9 -19 -20 -25 -17 -9 -20
-8 -20 8 0 10 3 22 7 25 12 12 33 7 33 -8z m490 -10 c0 -26 -14 -33 -25 -15
-9 14 1 40 15 40 5 0 10 -11 10 -25z m4998 3 c-5 -32 -28 -35 -28 -4 0 17 5
26 16 26 10 0 14 -7 12 -22z m342 2 c0 -22 -14 -40 -32 -40 -14 0 -18 5 -14
15 3 8 0 15 -7 15 -7 0 -4 7 6 15 19 13 47 10 47 -5z m-6932 -18 c2 -7 -3 -12
-12 -12 -9 0 -16 7 -16 16 0 17 22 14 28 -4z m652 -2 c0 -21 -26 -38 -38 -25
-4 4 -1 10 6 12 6 3 12 11 12 19 0 8 5 14 10 14 6 0 10 -9 10 -20z m2284 -13
c-3 -9 -10 -17 -15 -17 -11 0 -12 34 -2 44 11 11 24 -9 17 -27z m801 23 c3 -6
-1 -13 -10 -16 -19 -8 -30 0 -20 15 8 14 22 14 30 1z m2445 -9 c0 -20 -27 -48
-37 -37 -9 8 14 56 27 56 5 0 10 -8 10 -19z m-4000 -6 c-7 -8 -16 -12 -21 -9
-13 8 -1 24 18 24 13 0 13 -3 3 -15z m-1468 -27 c-9 -9 -12 -7 -12 12 0 19 3
21 12 12 9 -9 9 -15 0 -24z m-883 -274 c3 -16 1 -17 -13 -5 -19 16 -21 34 -3
29 6 -3 14 -13 16 -24z m-80 -480 c3 -16 1 -17 -13 -5 -19 16 -21 34 -3 29 6
-3 14 -13 16 -24z m-11 -32 c2 -7 -3 -12 -12 -12 -9 0 -16 7 -16 16 0 17 22
14 28 -4z m0 -510 c2 -7 -3 -12 -12 -12 -9 0 -16 7 -16 16 0 17 22 14 28 -4z
m102 -241 c0 -12 -28 -22 -34 -12 -3 5 -3 11 1 15 9 9 33 7 33 -3z m200 -316
c0 -8 -7 -15 -15 -15 -16 0 -20 12 -8 23 11 12 23 8 23 -8z m218 -9 c3 -12 -1
-17 -10 -14 -7 3 -15 13 -16 22 -3 12 1 17 10 14 7 -3 15 -13 16 -22z m1532
-14 c0 -5 -9 -17 -20 -27 -16 -14 -20 -15 -20 -4 0 16 19 39 32 39 4 0 8 -4 8
-8z m-1270 -32 c0 -16 -4 -30 -9 -30 -13 0 -21 27 -15 45 10 25 24 17 24 -15z
m200 5 c0 -8 -4 -15 -10 -15 -5 0 -10 7 -10 15 0 8 5 15 10 15 6 0 10 -7 10
-15z m1178 -9 c3 -12 -1 -17 -10 -14 -7 3 -15 13 -16 22 -3 12 1 17 10 14 7
-3 15 -13 16 -22z m-1328 -8 c0 -16 -3 -19 -11 -11 -6 6 -8 16 -5 22 11 17 16
13 16 -11z m-312 -35 c-4 -34 -28 -43 -28 -10 0 25 7 37 22 37 5 0 8 -12 6
-27z m1560 -2 c3 -8 -1 -12 -9 -9 -7 2 -15 10 -17 17 -3 8 1 12 9 9 7 -2 15
-10 17 -17z m57 1 c0 -18 -20 -15 -23 4 -3 10 1 15 10 12 7 -3 13 -10 13 -16z
m-725 -7 c0 -8 -4 -15 -10 -15 -5 0 -10 7 -10 15 0 8 5 15 10 15 6 0 10 -7 10
-15z m-804 -61 c-4 -13 -11 -24 -16 -24 -14 0 -13 33 2 67 11 28 12 28 16 4 2
-12 1 -34 -2 -47z m1068 49 c4 -9 2 -21 -4 -27 -12 -12 -15 -8 -24 22 -9 27
18 32 28 5z m546 8 c0 -11 -31 -24 -39 -16 -3 3 1 10 9 15 19 12 30 12 30 1z
m-865 -11 c3 -5 15 -10 26 -10 10 0 19 -4 19 -10 0 -5 -9 -10 -20 -10 -11 0
-20 4 -20 10 0 6 -10 5 -25 -2 l-25 -11 22 -24 c16 -17 18 -23 6 -23 -8 0 -25
11 -37 24 l-23 24 21 21 c23 23 46 27 56 11z m821 -12 c4 -6 -3 -20 -17 -31
-13 -11 -23 -24 -21 -28 1 -5 -7 -9 -19 -9 -14 0 -19 5 -16 14 3 8 -1 17 -9
20 -27 10 -15 28 15 21 21 -4 30 -2 34 9 7 19 23 21 33 4z m-1156 -8 c0 -5 -9
-10 -21 -10 -11 0 -17 5 -14 10 3 6 13 10 21 10 8 0 14 -4 14 -10z m-189 -10
c10 -6 19 -17 19 -25 0 -22 -28 -18 -40 4 -17 33 -12 38 21 21z"/>
<path d="M1930 2190 c-9 -6 -10 -10 -3 -10 6 0 15 5 18 10 8 12 4 12 -15 0z"/>
<path d="M7290 2301 c0 -11 10 -27 23 -36 20 -14 22 -14 25 2 2 10 8 22 13 28
17 17 9 25 -26 25 -28 0 -35 -4 -35 -19z"/>
<path d="M7383 2305 c-3 -9 -3 -18 -1 -21 3 -3 8 4 11 16 6 23 -1 27 -10 5z"/>
<path d="M7485 2300 c-4 -13 -18 -23 -36 -27 -33 -6 -47 -19 -21 -19 67 0 72
-3 60 -29 -12 -26 -24 -32 -30 -14 -2 5 -14 -1 -27 -15 -20 -21 -21 -26 -8
-26 9 0 17 -4 17 -9 0 -5 8 -12 18 -16 14 -5 15 -4 5 6 -21 21 -15 35 15 34
24 0 27 4 30 38 3 30 9 40 28 47 23 9 35 50 14 50 -5 0 -10 -9 -10 -20 0 -11
-5 -20 -11 -20 -6 0 -13 9 -16 20 -7 26 -20 26 -28 0z"/>
<path d="M7599 2309 c-10 -6 -6 -9 14 -9 53 0 64 -13 65 -80 1 -34 6 -68 12
-75 9 -11 7 -20 -7 -39 -10 -14 -21 -26 -25 -26 -5 0 -8 -4 -8 -9 0 -11 50 -5
63 8 15 15 37 14 37 -2 0 -7 9 -13 20 -13 11 0 20 6 20 13 0 18 30 16 52 -4
11 -9 18 -11 18 -5 0 7 15 12 32 12 l32 0 -22 16 c-22 15 -22 17 -6 35 22 25
34 24 34 -2 0 -12 8 -23 20 -26 25 -7 26 -19 3 -32 -15 -9 -12 -10 12 -6 77
11 145 14 145 7 0 -4 9 -8 20 -9 11 -1 20 3 20 9 0 7 13 8 38 3 49 -10 146 -6
150 6 5 14 22 11 22 -4 0 -10 64 -12 299 -12 234 0 297 3 294 13 -6 15 -3 15
35 -1 17 -7 49 -11 71 -9 36 4 41 7 41 29 0 30 24 26 28 -5 3 -22 7 -22 171
-22 l168 0 7 46 c3 26 6 64 6 85 0 22 4 39 9 39 12 0 21 -52 21 -122 0 -33 4
-57 9 -54 5 4 33 1 61 -5 87 -19 158 -101 161 -186 l2 -38 6 39 c10 63 33 59
29 -5 -2 -34 -7 -53 -14 -52 -9 2 -12 -61 -13 -224 -1 -124 -4 -230 -7 -235
-3 -4 2 -8 10 -8 9 0 16 -5 16 -11 0 -5 5 -7 10 -4 6 3 10 15 10 26 0 12 7 19
20 19 21 0 27 -15 10 -25 -5 -3 -10 -11 -10 -18 0 -6 6 -3 13 8 18 24 31 4 22
-35 -7 -32 -25 -41 -25 -12 -1 10 -7 3 -15 -15 -16 -37 -22 -39 -44 -19 -15
13 -16 4 -13 -95 2 -60 7 -107 12 -104 18 11 20 -15 3 -32 -16 -16 -18 -43
-18 -308 0 -159 -3 -306 -7 -325 -8 -47 -18 -71 -28 -65 -5 3 -6 -4 -3 -15 4
-15 0 -20 -16 -20 -11 0 -37 -9 -58 -19 -21 -11 -68 -23 -105 -26 -57 -6 -68
-10 -68 -26 0 -10 -5 -21 -11 -25 -8 -5 -10 1 -7 20 5 23 2 26 -23 26 -16 0
-29 -5 -29 -12 0 -7 -6 -6 -17 3 -16 13 -45 15 -128 10 -6 -1 -9 -16 -7 -35 2
-18 -1 -43 -7 -55 -10 -18 -15 -19 -32 -10 -13 6 -19 18 -17 32 2 12 -4 27
-12 34 -13 10 -13 12 4 19 11 4 21 2 27 -7 7 -11 9 -9 9 6 0 18 -5 20 -45 17
-25 -2 -45 -8 -45 -13 0 -5 -4 -9 -10 -9 -5 0 -10 6 -10 14 0 15 -28 13 -69
-7 -18 -9 -25 -8 -35 3 -9 13 -83 15 -516 15 -305 0 -508 -4 -512 -9 -4 -6
-15 -6 -30 0 -13 6 -72 9 -133 8 -60 -1 -161 -3 -223 -3 -74 -1 -111 -5 -107
-11 4 -6 11 -7 17 -4 6 4 6 -2 -1 -15 -7 -11 -16 -21 -21 -21 -5 0 -11 -10
-13 -22 l-4 -23 -8 23 c-6 19 -13 22 -33 17 -76 -19 -78 -19 -92 15 -11 27
-11 33 1 42 10 7 7 8 -11 4 -14 -3 -37 -6 -52 -6 -22 0 -25 -3 -20 -22 5 -22
4 -22 -15 -6 -11 10 -25 18 -31 18 -7 0 -12 4 -12 9 0 5 -15 5 -32 2 -22 -5
-37 -16 -46 -34 -10 -20 -20 -27 -35 -25 -12 2 -21 9 -19 16 1 6 -6 20 -15 29
-14 14 -33 18 -88 17 -226 -5 -506 -5 -513 0 -5 3 -12 2 -16 -2 -9 -9 -127
-12 -122 -3 6 10 -288 0 -299 -10 -12 -12 -38 -12 -30 1 4 6 -11 10 -37 11
-24 1 -62 2 -86 3 -39 1 -43 0 -37 -19 4 -11 9 -35 12 -52 5 -29 2 -33 -16
-33 -12 0 -24 8 -27 17 -3 10 -10 26 -15 36 -8 14 -6 23 5 35 14 16 7 17 -93
14 -102 -3 -107 -4 -106 -25 0 -31 -19 -33 -23 -2 -3 25 -3 25 -108 25 -62 0
-103 -4 -99 -9 3 -5 1 -12 -4 -16 -5 -3 -14 2 -19 10 -7 14 -36 16 -198 16
-318 0 -284 4 -284 -31 0 -20 5 -30 15 -30 8 0 15 -4 15 -10 0 -5 -11 -10 -25
-10 -16 0 -25 -6 -25 -15 0 -8 -4 -15 -9 -15 -17 0 -22 37 -10 64 21 46 5 52
-133 46 -67 -3 -124 -2 -126 2 -5 10 -52 -1 -66 -15 -7 -7 -11 -18 -8 -26 3
-8 -1 -12 -9 -9 -8 3 -15 16 -17 30 -3 21 -7 25 -25 20 -12 -3 -25 -10 -29
-16 -6 -8 -11 -7 -17 3 -5 8 -30 14 -69 15 -61 1 -61 1 -64 -29 -2 -22 -9 -31
-25 -33 -29 -4 -42 34 -17 52 15 11 10 12 -30 6 -25 -4 -49 -4 -51 0 -6 9 -75
-1 -75 -11 0 -14 -20 -10 -37 7 -15 15 -18 14 -32 -13 l-16 -28 -3 25 -3 25
-346 -3 c-209 -2 -352 -7 -359 -13 -8 -6 -13 -5 -17 3 -2 8 -19 12 -38 11 -19
-1 -73 -2 -121 -2 l-88 -1 0 -39 c0 -44 -13 -59 -36 -40 -10 8 -14 25 -12 48
l3 35 -220 -2 c-121 -2 -228 -5 -237 -8 -26 -8 -22 -31 7 -38 14 -4 25 -13 25
-21 0 -17 -23 -19 -51 -5 -20 11 -24 2 -20 -43 1 -9 -3 -17 -8 -17 -6 0 -11
-4 -11 -10 0 -5 9 -10 20 -10 11 0 23 -7 26 -15 4 -8 10 -15 16 -15 5 0 6 5 2
11 -6 10 41 58 59 59 15 0 -6 -55 -28 -75 -12 -11 -25 -28 -28 -37 -3 -9 -16
-18 -29 -21 -13 -2 138 -4 335 -5 317 -1 357 0 357 14 0 9 10 24 23 35 26 22
67 25 67 5 0 -8 5 -16 12 -18 17 -6 0 -28 -22 -28 -10 0 -20 7 -22 16 -3 14
-6 13 -22 -5 l-19 -21 83 0 c65 0 80 3 72 13 -13 16 3 57 23 57 18 0 20 -36 3
-43 -51 -18 91 -22 767 -24 753 -2 763 -2 758 17 -7 26 5 70 18 70 7 0 9 -10
5 -26 -13 -49 1 -65 50 -63 48 3 59 11 59 44 0 11 7 20 15 20 10 0 15 -10 15
-32 0 -30 1 -31 40 -28 22 1 48 6 58 10 10 4 17 3 17 -4 0 -17 118 -12 124 4
2 7 15 10 30 8 14 -3 23 -9 20 -14 -3 -6 206 -9 524 -9 l530 1 -20 38 -20 38
25 27 c15 15 31 25 36 21 15 -9 14 -45 -2 -45 -7 0 -18 -5 -25 -12 -9 -9 -5
-15 18 -24 17 -7 30 -20 30 -29 0 -9 4 -14 9 -10 6 3 6 17 1 35 -6 22 -5 30 4
30 19 0 36 -22 36 -47 l0 -23 222 0 c122 0 218 3 215 7 -4 3 -1 13 6 21 10 13
9 14 -11 3 -33 -18 -40 -6 -13 23 29 30 45 90 32 115 -11 20 -6 31 15 31 6 0
15 -15 18 -34 4 -19 14 -37 22 -40 10 -4 14 -13 10 -22 -3 -8 1 -22 9 -30 8
-9 15 -11 15 -5 0 6 7 11 15 11 19 0 20 40 0 66 -14 18 -14 18 -9 -2 8 -31
-12 -38 -30 -12 -20 28 -20 48 -2 48 8 0 16 4 18 10 6 19 48 -2 48 -24 0 -12
5 -27 11 -33 7 -7 8 -30 1 -72 l-9 -61 59 0 59 0 -22 30 c-13 16 -19 33 -15
37 4 4 12 0 18 -11 10 -17 11 -17 22 5 15 31 50 32 54 2 4 -27 -15 -31 -20 -5
-3 9 -6 0 -9 -20 -5 -35 -3 -38 21 -38 34 0 57 15 36 23 -9 4 -16 13 -16 22 0
18 5 19 31 4 19 -10 20 -9 9 11 -16 29 -8 34 48 33 26 -1 37 1 25 4 -32 6 -29
23 5 23 l27 0 -23 18 -23 18 38 13 c21 8 44 16 51 18 7 3 12 -4 12 -21 0 -26
7 -30 44 -26 14 1 18 -3 13 -19 -6 -24 11 -29 19 -6 4 8 12 15 20 15 18 0 7
-29 -20 -53 -12 -11 -20 -26 -18 -34 2 -8 -5 -21 -14 -28 -14 -10 46 -13 332
-14 271 -1 346 1 337 10 -8 8 -9 18 -2 31 14 26 26 22 33 -13 5 -29 8 -30 48
-28 56 4 97 27 90 51 -3 13 1 18 18 18 20 0 22 -4 17 -35 l-6 -35 79 0 c54 0
80 4 83 13 3 9 7 9 19 -1 12 -10 126 -12 514 -12 275 0 505 4 512 9 7 4 12 14
10 21 -2 7 3 15 10 17 7 3 12 -4 12 -16 0 -25 8 -25 75 -7 76 20 133 53 195
112 64 61 110 133 84 130 -17 -1 -42 29 -32 39 3 4 15 1 27 -7 17 -10 23 -10
33 0 11 11 10 12 -4 7 -24 -10 -22 6 4 35 12 13 25 44 29 69 12 72 11 1436 -2
1511 -11 72 -67 195 -105 231 -24 22 -24 22 -24 1 0 -22 -24 -52 -43 -52 -44
1 -56 70 -18 101 l22 18 -47 27 c-83 48 -215 84 -240 63 -9 -7 -19 -7 -33 1
-13 7 -85 10 -193 9 l-173 -1 -1 -59 c0 -63 -17 -96 -34 -69 -5 8 -12 41 -16
73 l-7 57 -145 0 c-114 0 -143 -3 -134 -12 25 -25 8 -78 -25 -78 -16 0 -18 61
-2 77 8 8 -25 11 -120 11 -75 1 -131 -3 -131 -9 0 -5 -7 -9 -15 -9 -8 0 -15 5
-15 10 0 6 -29 10 -66 10 l-66 0 6 -35 c8 -40 -1 -44 -28 -14 -13 16 -15 24
-6 29 7 4 -2 10 -24 14 -27 5 -41 3 -53 -9 -17 -17 -71 -14 -83 4 -7 12 -553
12 -571 0z m1370 -35 c-17 -21 -31 -17 -19 6 6 11 15 18 21 14 6 -4 6 -11 -2
-20z m461 2 c0 -14 -5 -28 -10 -31 -13 -8 -24 20 -16 40 9 24 26 17 26 -9z
m-1053 -56 c4 -16 14 -20 49 -20 52 0 65 -19 43 -58 -20 -37 -35 -37 -70 -3
-17 17 -35 31 -41 31 -6 0 -8 9 -5 20 4 15 0 20 -14 20 -10 0 -19 4 -19 8 0
28 50 30 57 2z m158 -11 c-8 -12 -35 -12 -35 0 0 11 22 20 33 14 4 -2 5 -9 2
-14z m535 0 c0 -5 -7 -9 -15 -9 -15 0 -20 12 -9 23 8 8 24 -1 24 -14z m326 -3
c8 -22 -15 -98 -29 -93 -7 2 -13 18 -15 35 -5 50 29 96 44 58z m-1620 -33 c7
-10 14 -24 14 -32 0 -11 -3 -11 -16 0 -13 11 -15 10 -12 -6 5 -29 -19 -29 -49
1 -25 26 -26 27 -8 40 26 19 55 17 71 -3z m184 -1 c0 -10 5 -23 12 -30 15 -15
4 -26 -18 -18 -9 3 -14 13 -10 21 3 8 1 17 -5 20 -11 7 -3 25 12 25 5 0 9 -8
9 -18z m210 -37 c0 -8 -7 -15 -15 -15 -16 0 -20 12 -8 23 11 12 23 8 23 -8z
m-342 -23 c2 -7 -3 -12 -12 -12 -9 0 -16 7 -16 16 0 17 22 14 28 -4z m1206 2
c4 -9 4 -19 2 -22 -10 -9 -36 8 -36 23 0 20 26 19 34 -1z m789 -70 c6 -35 -11
-96 -26 -91 -13 4 -22 80 -13 103 9 23 33 16 39 -12z m27 -129 c0 -26 -14 -33
-25 -15 -9 14 1 40 15 40 5 0 10 -11 10 -25z m-26 -101 c10 -27 7 -56 -6 -52
-15 5 -24 68 -10 68 6 0 13 -7 16 -16z m36 -114 c0 -11 -4 -20 -10 -20 -5 0
-10 9 -10 20 0 11 5 20 10 20 6 0 10 -9 10 -20z m-62 -32 c-5 -15 -23 -11 -26
6 -2 11 2 14 13 10 9 -4 14 -11 13 -16z m168 -232 c2 -23 -1 -26 -27 -26 -16
0 -29 -5 -29 -12 0 -6 -7 -4 -18 5 -22 20 -33 22 -29 5 1 -7 -8 -14 -20 -16
-16 -2 -23 2 -23 12 0 19 30 36 64 36 26 0 43 15 27 24 -5 4 -11 0 -14 -6 -2
-7 -8 -9 -13 -5 -5 5 2 17 15 28 24 20 25 20 44 0 11 -11 21 -31 23 -45z
m-116 -231 c21 -25 1 -31 -22 -7 -18 18 -19 22 -6 22 8 0 21 -7 28 -15z m0
-114 c0 -6 -4 -12 -9 -15 -5 -3 -7 -14 -4 -24 3 -12 -4 -22 -22 -30 -14 -7
-28 -12 -31 -12 -9 0 9 75 20 82 16 11 46 10 46 -1z m-10 -82 c0 -6 -5 -19
-11 -31 -10 -18 -8 -19 13 -13 35 11 40 11 45 -2 2 -6 -10 -14 -27 -18 -40 -9
-63 17 -47 52 11 24 27 31 27 12z m118 -76 c2 -8 -7 -14 -25 -14 l-28 -2 28
-4 c28 -4 37 -21 15 -27 -55 -17 -68 -16 -77 6 -14 38 -13 43 11 50 33 9 71 5
76 -9z m-160 -355 c-3 -7 -11 -13 -18 -13 -7 0 -15 6 -17 13 -3 7 4 12 17 12
13 0 20 -5 18 -12z m46 6 c22 -9 20 -24 -3 -24 -21 0 -34 13 -24 24 8 7 8 7
27 0z m54 -88 c10 -20 11 -31 3 -40 -9 -10 -7 -15 9 -19 29 -7 25 -27 -5 -27
-28 0 -31 4 -40 74 -7 55 10 61 33 12z m-63 4 c0 -8 -8 -16 -19 -18 -11 -3
-16 0 -12 7 5 7 1 9 -8 5 -16 -6 -22 7 -9 20 12 12 48 2 48 -14z m-34 -149 c4
-28 12 -57 18 -65 12 -14 5 -46 -9 -46 -5 0 -16 -3 -25 -7 -15 -5 -16 -3 -7
14 6 11 9 22 7 24 -2 3 -6 35 -9 72 -4 52 -3 68 7 64 6 -2 15 -27 18 -56z
m115 6 c1 -43 -17 -50 -34 -12 -14 30 -5 57 17 53 11 -2 16 -15 17 -41z m-70
-148 c-3 -17 -16 -39 -28 -49 -22 -17 -22 -17 -35 8 -15 28 -10 40 10 24 10
-8 16 -4 26 19 17 39 35 38 27 -2z m-7081 1 c3 -11 3 -24 0 -30 -9 -15 -41
-12 -55 5 -10 12 -10 15 3 15 8 0 17 7 21 15 8 21 23 19 31 -5z m2225 10 c0
-13 -28 -25 -38 -16 -3 4 0 11 8 16 20 13 30 12 30 0z m454 4 c9 -3 16 -15 16
-26 0 -17 -3 -18 -14 -9 -24 20 -8 -24 20 -54 l23 -25 -20 -35 c-12 -19 -27
-35 -35 -35 -17 0 -18 12 -1 29 10 11 9 12 -1 6 -19 -10 -60 34 -42 45 11 7
11 11 1 24 -11 13 -11 17 2 22 9 3 13 12 10 20 -6 17 3 44 16 44 5 0 16 -3 25
-6z m962 -5 c10 -17 -13 -36 -27 -22 -12 12 -4 33 11 33 5 0 12 -5 16 -11z
m852 -6 c17 8 26 6 42 -8 16 -14 17 -20 8 -27 -19 -12 -26 -10 -31 10 -3 11
-5 8 -6 -9 0 -14 8 -35 19 -47 24 -25 26 -36 5 -28 -8 3 -26 1 -40 -4 -16 -6
-25 -6 -25 0 0 6 -6 10 -14 10 -24 0 -30 21 -7 27 22 6 26 19 12 42 -6 9 -11
10 -15 2 -10 -16 -36 -13 -36 4 0 8 5 15 10 15 6 0 10 7 10 16 0 15 2 15 23 2
16 -11 28 -12 45 -5z m716 8 c3 -5 0 -21 -8 -35 l-13 -26 -24 26 c-20 21 -21
27 -9 34 19 12 47 13 54 1z m-1523 -39 c-8 -15 -8 -22 2 -25 9 -3 9 -9 2 -22
-15 -25 -29 -24 -33 3 -4 29 20 84 31 73 5 -5 4 -18 -2 -29z m1779 18 c6 -11
7 -20 2 -20 -10 0 -32 21 -32 32 0 16 19 8 30 -12z m1354 10 c36 -13 37 -54 1
-48 -20 4 -23 3 -14 -8 6 -7 8 -18 4 -24 -4 -6 4 -10 19 -10 32 0 33 -13 4
-40 -24 -22 -53 -26 -64 -9 -14 24 -1 149 16 149 5 0 20 -4 34 -10z m-6218
-21 c1 -5 3 -10 4 -11 1 -2 3 -18 5 -35 2 -26 -1 -33 -15 -33 -26 0 -43 25
-31 47 5 10 12 27 16 37 5 18 19 15 21 -5z m1217 9 c31 -15 35 -28 8 -28 -10
0 -21 -7 -25 -15 -3 -8 -10 -15 -16 -15 -5 0 -10 7 -10 15 0 8 -5 15 -10 15
-6 0 -5 8 2 20 15 24 16 24 51 8z m3192 -14 c0 -14 -8 -19 -38 -22 -32 -2 -38
0 -35 15 2 10 11 18 20 18 9 0 20 4 24 8 13 12 29 2 29 -19z m-175 7 c0 -14
-18 -23 -30 -16 -6 4 -8 11 -5 16 8 12 35 12 35 0z m1413 -6 c7 -16 -8 -29
-23 -20 -15 9 -12 35 4 35 8 0 16 -7 19 -15z m-6423 -4 c0 -5 -7 -14 -15 -21
-12 -10 -15 -10 -15 2 0 8 3 18 7 21 9 10 23 9 23 -2z m1418 -3 c-7 -19 -38
-22 -38 -4 0 10 9 16 21 16 12 0 19 -5 17 -12z m2012 -23 c0 -19 -2 -35 -5
-35 -9 0 -25 51 -19 61 12 20 24 7 24 -26z m2356 10 c7 -29 -7 -77 -26 -83 -7
-3 -10 0 -6 6 4 7 2 21 -4 32 -13 24 -3 70 16 70 7 0 16 -11 20 -25z m-4160 4
c10 -17 -13 -36 -27 -22 -12 12 -4 33 11 33 5 0 12 -5 16 -11z m700 -13 c-4
-16 -1 -26 9 -30 8 -3 15 -10 15 -16 0 -6 -4 -9 -9 -5 -5 3 -13 1 -16 -5 -5
-8 -11 -7 -21 1 -17 14 -17 20 -4 53 12 33 34 35 26 2z m114 -14 c0 -9 -5 -24
-10 -32 -8 -13 -11 -11 -16 8 -4 13 -14 22 -27 22 -19 0 -19 1 -2 20 13 15 22
17 36 9 11 -5 19 -17 19 -27z m-1850 19 c0 -10 -30 -24 -37 -17 -3 3 -2 9 2
15 8 13 35 15 35 2z m1490 -2 c0 -20 -21 -49 -35 -49 -18 0 -20 31 -3 48 15
15 38 16 38 1z m4476 -27 c-9 -8 -26 10 -26 26 1 15 2 15 15 -2 8 -11 13 -21
11 -24z m-4678 16 c16 -16 15 -28 -2 -28 -17 0 -38 24 -29 33 9 10 17 9 31 -5z
m132 -1 c0 -18 -21 -37 -41 -37 -10 0 -19 -5 -21 -12 -2 -6 -10 -8 -17 -4 -14
9 3 36 24 36 7 0 18 7 25 15 15 18 30 19 30 2z m964 5 c7 -11 -21 -72 -34 -72
-13 0 -13 9 1 49 11 30 23 39 33 23z m1334 -10 c2 -7 -3 -12 -12 -12 -9 0 -16
7 -16 16 0 17 22 14 28 -4z m2565 -2 c6 -24 -2 -60 -14 -60 -5 0 -9 8 -9 18 0
9 -3 27 -6 40 -5 16 -2 22 9 22 8 0 17 -9 20 -20z m-5805 -8 c2 -7 -3 -12 -12
-12 -9 0 -16 7 -16 16 0 17 22 14 28 -4z m1452 -23 c0 -18 -22 -20 -35 -3 -24
32 -19 47 10 28 14 -9 25 -20 25 -25z m4545 31 c-3 -5 -13 -10 -21 -10 -8 0
-12 5 -9 10 3 6 13 10 21 10 8 0 12 -4 9 -10z m-2477 -28 c4 -25 -13 -30 -22
-6 -9 25 -7 36 7 32 6 -3 13 -14 15 -26z m-1120 -14 c-3 -34 -20 -42 -26 -13
-5 22 5 45 18 45 7 0 10 -14 8 -32z m-3361 6 c8 -22 -15 -44 -26 -25 -10 16
-4 41 10 41 5 0 12 -7 16 -16z m2363 9 c0 -5 -4 -15 -10 -23 -11 -18 -25 -7
-17 15 6 15 27 21 27 8z m-585 -12 c7 -12 -12 -24 -25 -16 -11 7 -4 25 10 25
5 0 11 -4 15 -9z m123 -8 c-2 -11 -14 -19 -32 -21 -20 -3 -27 0 -24 10 3 7 10
13 16 13 5 0 14 3 18 8 13 13 26 7 22 -10z m3092 3 c0 -8 -4 -18 -10 -21 -5
-3 -10 3 -10 14 0 12 5 21 10 21 6 0 10 -6 10 -14z m-1830 -16 c8 -5 12 -12 8
-15 -10 -10 -49 5 -43 16 8 11 16 11 35 -1z m1020 -5 c0 -8 -7 -15 -15 -15
-16 0 -20 12 -8 23 11 12 23 8 23 -8z m2275 -5 c-3 -5 -1 -10 4 -10 6 0 11 -7
11 -15 0 -8 -9 -15 -20 -15 -20 0 -28 28 -13 43 10 11 25 8 18 -3z m-929 -48
c-24 -24 -31 -6 -10 25 16 24 19 26 22 9 2 -10 -3 -25 -12 -34z m-5456 18 c0
-11 -4 -20 -9 -20 -14 0 -23 18 -16 30 10 17 25 11 25 -10z m4992 -12 c-15
-15 -26 -4 -18 18 5 13 9 15 18 6 9 -9 9 -15 0 -24z m-1882 6 c0 -17 -22 -14
-28 4 -2 7 3 12 12 12 9 0 16 -7 16 -16z"/>
<path d="M7720 2161 c0 -6 5 -13 10 -16 6 -3 10 1 10 9 0 9 -4 16 -10 16 -5 0
-10 -4 -10 -9z"/>
<path d="M5420 116 c0 -2 8 -10 18 -17 15 -13 16 -12 3 4 -13 16 -21 21 -21
13z"/>
<path d="M6891 2267 c0 -16 4 -38 10 -49 11 -20 12 -20 25 12 14 32 15 32 67
28 28 -3 42 -3 30 -1 -13 2 -23 9 -23 14 0 15 -60 10 -66 -6 -9 -23 -32 -18
-37 8 -4 18 -4 17 -6 -6z"/>
<path d="M7600 2260 c0 -5 -7 -6 -17 -3 -11 4 -14 3 -9 -5 9 -15 36 -16 36 -2
0 6 7 10 15 10 18 0 20 -14 3 -27 -23 -18 -58 -22 -72 -7 -12 11 -15 11 -19 0
-8 -21 4 -61 14 -45 6 10 11 10 23 0 13 -11 16 -11 16 3 0 9 7 16 15 16 8 0
15 5 15 11 0 6 7 9 15 6 19 -8 24 3 14 31 -8 22 -49 32 -49 12z"/>
<path d="M7249 2243 c36 -14 49 -35 40 -65 -6 -21 -5 -28 4 -25 17 5 21 78 5
88 -7 5 -24 8 -38 8 -14 0 -19 -3 -11 -6z"/>
<path d="M7373 2225 c-12 -14 -17 -27 -12 -31 12 -7 12 -71 -1 -79 -5 -3 -10
3 -10 15 0 12 -4 19 -9 16 -4 -3 -6 -17 -3 -31 4 -24 6 -25 22 -10 9 8 23 15
32 15 25 0 29 13 8 27 -22 15 -26 53 -10 84 14 25 10 24 -17 -6z"/>
<path d="M7220 2220 c0 -6 7 -10 15 -10 8 0 15 2 15 4 0 2 -7 6 -15 10 -8 3
-15 1 -15 -4z"/>
<path d="M7405 2220 c-3 -5 -1 -10 4 -10 6 0 11 5 11 10 0 6 -2 10 -4 10 -3 0
-8 -4 -11 -10z"/>
<path d="M7330 2179 c0 -5 5 -7 10 -4 6 3 10 8 10 11 0 2 -4 4 -10 4 -5 0 -10
-5 -10 -11z"/>
<path d="M7604 2160 c-6 -6 -24 -12 -41 -13 -33 -2 -34 -16 -5 -50 8 -9 12
-20 8 -25 -11 -10 -57 50 -51 66 3 8 0 12 -7 10 -20 -7 -31 -34 -25 -59 6 -23
11 -25 72 -25 54 0 65 3 65 17 0 9 10 24 23 33 14 10 16 14 5 10 -21 -7 -23 6
-5 25 10 11 9 12 -2 6 -7 -4 -16 -3 -20 4 -5 7 -10 8 -17 1z m16 -28 c0 -4 -9
-13 -21 -20 -17 -11 -23 -11 -36 0 -14 11 -13 14 13 19 43 10 44 10 44 1z"/>
<path d="M7080 2080 c0 -11 5 -20 10 -20 6 0 10 9 10 20 0 11 -4 20 -10 20 -5
0 -10 -9 -10 -20z"/>
<path d="M7431 2077 c-8 -10 -7 -14 4 -14 8 0 15 6 15 14 0 7 -2 13 -4 13 -2
0 -9 -6 -15 -13z"/>
<path d="M6081 1654 c-10 -12 -15 -13 -21 -3 -10 16 -82 7 -171 -20 -67 -21
-67 -21 -73 -64 -4 -23 -13 -55 -20 -69 -8 -15 -20 -52 -27 -83 -18 -82 -33
-82 -26 1 4 54 2 73 -10 87 -20 21 -10 35 12 17 21 -17 30 -5 18 22 -10 23
-11 22 -52 -20 -76 -79 -109 -169 -118 -318 -7 -125 8 -219 49 -303 31 -64 94
-137 138 -161 24 -13 24 -15 4 35 -7 16 13 20 34 7 10 -7 10 -15 2 -36 -9 -25
-8 -28 25 -42 79 -33 162 -47 274 -48 101 0 115 2 128 20 11 15 15 16 22 5 7
-11 18 -10 65 3 32 9 56 22 55 29 -1 7 4 27 11 44 12 34 30 36 30 3 0 -37 21
-31 77 23 52 50 60 65 62 120 1 10 12 22 25 26 29 12 56 99 34 112 -7 5 -17 9
-23 9 -6 0 -9 21 -7 50 5 61 18 65 27 9 5 -30 10 -38 18 -30 9 9 8 17 -1 31
-7 12 -8 21 -2 25 6 3 10 23 9 43 0 20 -3 31 -6 25 -8 -22 -23 -14 -23 11 0
14 -5 28 -12 32 -8 5 -9 2 -5 -9 3 -10 2 -17 -4 -17 -19 0 -21 31 -3 58 15 22
19 24 22 10 2 -10 7 -18 11 -18 20 0 -13 122 -48 181 -21 34 -68 89 -76 89
-10 0 -30 -23 -38 -43 -4 -10 -11 -15 -17 -12 -15 10 -12 35 5 35 8 0 15 4 15
9 0 5 2 16 5 24 12 30 -179 106 -269 107 -16 0 -34 -7 -41 -17 -14 -19 -37 -9
-28 12 7 21 -38 19 -56 -1z m-91 -43 c0 -11 -4 -23 -10 -26 -6 -4 -10 5 -10
19 0 14 5 26 10 26 6 0 10 -9 10 -19z m40 0 c0 -22 -16 -36 -24 -22 -8 12 3
41 15 41 5 0 9 -9 9 -19z m278 -19 c4 -25 -13 -30 -22 -6 -9 25 -7 36 7 32 6
-3 13 -14 15 -26z m-215 -28 c3 -3 -3 -14 -14 -25 -10 -10 -19 -28 -19 -39 0
-18 -2 -19 -20 -8 -24 16 -25 23 -2 53 16 23 42 32 55 19z m243 -29 c19 -29
11 -44 -14 -29 -19 12 -29 54 -13 54 6 0 18 -11 27 -25z m-81 -15 c28 -29 28
-30 7 -30 -12 0 -22 5 -22 10 0 6 -6 10 -14 10 -18 0 -29 16 -21 30 10 16 19
12 50 -20z m-148 -7 c4 -11 -26 -27 -35 -19 -2 3 -2 12 2 21 6 18 27 16 33 -2z
m-197 -47 c0 -13 7 -27 16 -30 15 -6 15 -8 -1 -26 -14 -16 -16 -23 -7 -32 7
-7 12 -19 12 -27 -1 -11 -8 -7 -25 12 -26 30 -32 47 -15 47 6 0 10 5 10 10 0
6 -3 9 -7 9 -19 -3 -21 3 -12 31 13 36 29 39 29 6z m-72 -11 c-2 -14 -7 -26
-13 -26 -5 0 -11 12 -13 26 -2 18 1 25 13 25 12 0 15 -7 13 -25z m267 5 c3
-11 14 -20 24 -20 10 0 32 -3 48 -6 22 -4 34 0 54 20 35 35 57 21 42 -28 -8
-27 -8 -38 2 -46 21 -17 55 -97 55 -128 0 -26 2 -28 38 -24 35 3 36 2 18 -13
-11 -8 -27 -13 -36 -10 -14 4 -16 -7 -15 -86 0 -61 -4 -94 -12 -101 -19 -16
-15 -56 7 -75 11 -10 20 -22 20 -27 0 -5 8 -15 18 -22 15 -12 13 -13 -19 -14
-34 0 -66 20 -53 33 3 3 3 14 0 25 -6 18 -8 18 -37 -9 -21 -19 -50 -33 -90
-41 -57 -12 -63 -17 -62 -55 1 -15 -16 -16 -37 -3 -13 9 -13 12 2 24 13 10 15
15 6 24 -7 7 -19 12 -27 12 -9 0 -31 9 -50 21 -31 19 -34 19 -46 3 -9 -13 -14
-14 -20 -5 -4 7 -2 18 4 24 15 15 14 28 -1 25 -8 -2 -12 6 -10 19 2 17 -1 21
-12 17 -19 -7 -39 30 -31 56 5 16 3 19 -11 13 -14 -5 -16 -2 -12 15 4 12 2 22
-4 22 -5 0 -6 5 -2 11 3 6 16 8 28 5 20 -5 21 -1 23 80 3 129 43 199 130 229
21 7 39 18 39 24 1 6 2 16 3 21 2 17 19 11 26 -10z m355 -50 c11 -21 4 -25
-24 -14 -9 3 -16 12 -16 20 0 21 28 17 40 -6z m-649 -46 c11 -31 3 -64 -15
-64 -14 0 -30 66 -20 82 10 16 25 8 35 -18z m-71 -84 c0 -27 -30 -100 -41
-100 -15 0 -10 47 8 85 19 39 33 46 33 15z m700 -36 c0 -17 -22 -14 -28 4 -2
7 3 12 12 12 9 0 16 -7 16 -16z m-660 -35 c0 -10 -4 -19 -10 -19 -5 0 -10 12
-10 26 0 14 4 23 10 19 6 -3 10 -15 10 -26z m757 -3 c-4 -10 -1 -13 9 -9 7 3
14 1 14 -5 0 -18 -29 -22 -45 -6 -17 18 -12 34 12 34 9 0 13 -6 10 -14z m38
-115 c7 -23 -2 -48 -21 -55 -18 -7 -31 21 -16 36 6 6 8 17 5 24 -3 8 1 14 10
14 9 0 18 -8 22 -19z m-106 -55 c8 -6 21 -10 30 -8 11 2 17 -5 17 -18 0 -23
-8 -25 -38 -9 -14 8 -23 8 -31 0 -17 -17 -27 -13 -27 9 0 22 -16 27 -22 8 -5
-13 -28 -2 -28 13 0 27 68 30 99 5z m145 -12 c10 -25 7 -34 -9 -34 -9 0 -15
-9 -15 -25 0 -29 -7 -31 -38 -9 -37 26 -19 84 22 68 9 -3 16 -1 16 5 0 17 17
13 24 -5z m-221 -90 c-10 -26 -32 -16 -29 14 5 39 5 39 21 19 7 -11 11 -25 8
-33z m135 -32 c3 -28 0 -33 -15 -30 -10 2 -17 11 -17 20 1 11 -4 14 -13 11
-13 -5 -13 -2 -3 16 17 33 44 23 48 -17z m-244 -23 c14 -11 26 -29 26 -40 0
-24 -16 -25 -29 -2 -5 10 -13 14 -17 10 -5 -4 5 -19 21 -33 27 -22 28 -26 13
-36 -14 -10 -15 -14 -1 -34 8 -13 13 -31 11 -41 -3 -14 -9 -11 -26 17 -13 19
-25 48 -29 63 -3 16 -12 31 -19 34 -16 6 -19 53 -4 53 6 0 10 7 10 15 0 20 12
19 44 -6z m-321 -16 c2 -13 0 -26 -5 -29 -5 -3 -4 -12 2 -19 19 -23 1 -39 -20
-20 -18 16 -18 16 -13 -4 6 -22 -13 -35 -43 -29 -16 3 -16 5 -2 18 8 8 13 21
10 28 -2 6 1 12 6 12 5 0 8 15 6 33 -4 31 -2 34 25 34 23 0 30 -6 34 -24z
m447 -3 c0 -5 -11 -10 -25 -10 -14 0 -25 5 -25 10 0 6 11 10 25 10 14 0 25 -4
25 -10z m-372 -78 c3 -16 -2 -22 -17 -22 -24 0 -35 15 -27 36 9 23 40 13 44
-14z m72 13 c24 -29 -9 -47 -37 -19 -14 13 -14 17 -2 25 19 12 25 11 39 -6z
m-55 -55 c-3 -5 -15 -10 -26 -10 -10 0 -19 5 -19 10 0 6 12 10 26 10 14 0 23
-4 19 -10z"/>
<path d="M670 1328 c0 -349 6 -400 53 -480 32 -55 53 -73 86 -73 21 0 26 -4
24 -22 -6 -60 276 -119 437 -91 76 14 134 29 159 44 15 9 17 12 6 9 -35 -12
-49 -10 -53 7 -5 24 34 33 63 14 23 -15 26 -15 42 4 10 11 22 20 28 20 22 0
56 46 49 65 -6 15 -4 17 12 11 15 -6 17 -5 7 5 -15 15 -17 95 -3 104 9 6 17
-16 22 -65 2 -19 7 -12 20 30 21 67 35 172 19 150 -18 -26 -22 -3 -7 41 21 59
20 108 -1 125 -17 13 -17 15 0 28 15 12 17 34 17 206 0 178 -1 191 -17 179
-13 -11 -17 -11 -20 -1 -3 7 -23 12 -56 11 -47 -1 -49 -2 -24 -11 33 -12 38
-48 7 -48 -11 0 -23 7 -26 15 -4 10 -20 15 -46 15 -35 0 -39 2 -28 15 10 12
10 15 -4 15 -9 0 -16 -8 -16 -20 0 -11 -6 -20 -14 -20 -8 0 -18 9 -21 20 -3
11 -15 20 -26 20 -17 0 -19 -8 -19 -90 0 -83 2 -90 20 -90 13 0 22 -9 26 -25
7 -29 -1 -55 -16 -55 -6 0 -8 4 -5 10 3 5 -1 22 -9 37 -14 26 -15 10 -16 -192
-1 -141 -6 -231 -13 -252 -13 -35 -47 -77 -68 -86 -12 -5 -12 -7 0 -15 10 -7
11 -19 5 -46 -8 -33 -29 -52 -29 -26 0 6 -6 14 -14 19 -10 6 -10 13 -2 29 10
19 8 20 -47 15 -79 -6 -138 24 -169 87 -22 43 -23 52 -23 362 l0 318 -155 0
-155 0 0 -322z m280 281 c0 -6 -4 -19 -10 -29 -8 -14 -5 -19 13 -24 19 -5 20
-8 7 -17 -11 -8 -12 -12 -2 -16 18 -7 15 -38 -8 -58 -16 -15 -22 -15 -35 -5
-22 18 -18 49 7 59 20 7 20 8 -10 19 -32 11 -44 32 -19 32 8 0 19 11 25 25 12
25 32 34 32 14z m-122 -21 c-2 -15 -11 -24 -25 -26 -19 -3 -23 1 -23 22 0 21
5 26 26 26 21 0 25 -4 22 -22z m592 -99 c0 -13 -6 -11 -24 7 -9 8 -16 23 -16
32 1 14 5 12 20 -7 11 -13 20 -27 20 -32z m115 10 c4 -12 2 -24 -4 -29 -7 -3
-9 -13 -6 -21 6 -17 -20 -57 -30 -47 -4 4 -4 32 0 63 7 57 27 75 40 34z m-575
-90 c-10 -34 -17 -45 -25 -38 -8 9 16 80 25 74 5 -3 5 -19 0 -36z m610 -33 c0
-20 -19 -31 -32 -18 -6 6 -7 15 -4 21 10 16 36 13 36 -3z m-657 -38 c-7 -51
-11 -57 -23 -38 -10 16 -4 47 12 68 16 18 17 16 11 -30z m572 12 c3 -6 -1 -13
-10 -16 -19 -8 -30 0 -20 15 8 14 22 14 30 1z m-45 -25 c0 -8 -6 -15 -14 -15
-8 0 -16 -12 -18 -27 -5 -45 -28 -40 -28 5 0 41 0 41 53 51 4 0 7 -6 7 -14z
m125 -11 c0 -12 -8 -20 -24 -22 -16 -3 -22 0 -18 10 2 7 10 12 17 10 8 -2 10
3 6 13 -4 11 -2 15 6 13 7 -3 13 -13 13 -24z m-845 -13 c0 -14 -18 -23 -30
-16 -6 4 -8 11 -5 16 8 12 35 12 35 0z m918 -9 c2 -7 -3 -12 -12 -12 -9 0 -16
7 -16 16 0 17 22 14 28 -4z m-720 -29 c-2 -10 -12 -19 -22 -21 -11 -3 -16 0
-12 7 4 6 0 11 -8 11 -9 0 -16 5 -16 10 0 6 14 10 31 10 24 0 30 -4 27 -17z
m617 -33 c4 -6 -5 -10 -19 -10 -14 0 -26 5 -26 10 0 6 9 10 19 10 11 0 23 -4
26 -10z m-629 -125 c-3 -8 0 -27 6 -41 9 -19 9 -30 0 -44 -7 -12 -8 -21 -2
-25 6 -3 10 -13 10 -22 0 -13 -3 -13 -15 -3 -8 7 -15 21 -15 31 0 11 -5 19
-11 19 -6 0 -9 6 -6 13 2 6 -4 26 -14 44 -20 36 -17 43 24 43 22 0 28 -4 23
-15z m671 -1 c4 -11 -1 -22 -12 -30 -29 -21 -34 -17 -22 16 13 33 24 38 34 14z
m-161 -48 c21 -22 17 -33 -11 -33 -17 0 -25 5 -25 17 0 31 14 37 36 16z m158
-40 c7 -27 -1 -56 -15 -56 -5 0 -9 7 -9 15 0 8 -4 15 -10 15 -6 0 -5 10 2 25
14 31 24 32 32 1z m-96 2 c-5 -15 -48 -24 -48 -10 0 14 12 22 33 22 10 0 17
-5 15 -12z m-48 -68 c0 -14 -7 -20 -21 -20 -20 0 -21 -4 -16 -45 7 -45 -7 -72
-20 -38 -4 10 -14 23 -22 29 -30 23 11 72 77 93 1 1 2 -8 2 -19z m-473 -62
c-5 -34 -2 -41 14 -45 17 -5 18 -8 6 -22 -8 -9 -17 -23 -20 -31 -3 -11 -7 -8
-15 10 -6 14 -11 18 -11 9 -1 -8 6 -24 14 -35 21 -28 18 -34 -15 -27 -22 4
-37 0 -52 -13 -20 -18 -21 -18 -15 -1 4 10 7 27 7 38 0 11 7 19 18 19 14 0 14
2 3 9 -12 7 -10 14 8 36 11 15 21 33 21 40 0 7 7 16 16 19 13 5 14 9 4 21 -7
8 -9 23 -5 32 11 31 28 -13 22 -59z m570 28 c-3 -7 0 -19 6 -25 8 -8 8 -11 -1
-11 -7 0 -12 -10 -12 -21 0 -17 -3 -19 -13 -11 -18 15 -10 82 10 82 9 0 13 -6
10 -14z m-411 -71 c4 -26 1 -44 -15 -70 -12 -20 -21 -43 -21 -51 0 -22 -16
-17 -49 17 -26 26 -41 59 -27 59 2 0 11 3 20 6 12 5 16 0 16 -19 0 -14 5 -29
10 -32 6 -3 10 5 10 19 0 14 5 28 11 32 8 5 8 9 -1 14 -17 11 -2 56 20 57 15
1 21 -7 26 -32z m204 -10 c0 -8 -9 -19 -20 -25 -16 -9 -22 -8 -27 6 -3 9 0 20
8 25 21 13 39 11 39 -6z m-32 -62 c2 -8 -5 -13 -17 -13 -21 0 -35 13 -24 24
10 10 36 3 41 -11z m72 2 c0 -8 -4 -15 -10 -15 -5 0 -10 7 -10 15 0 8 5 15 10
15 6 0 10 -7 10 -15z"/>
<path d="M1910 1160 l0 -490 140 1 c77 0 140 5 140 9 0 5 -6 7 -14 4 -8 -3
-17 0 -21 6 -4 7 2 14 14 17 12 3 21 9 21 15 0 5 -9 4 -21 -2 -32 -18 -37 -1
-6 24 l27 22 0 187 c0 106 4 187 9 187 5 0 21 -14 35 -31 21 -25 27 -28 32
-15 3 9 10 16 15 16 13 0 11 -28 -3 -32 -10 -4 56 -85 244 -299 29 -32 57 -59
62 -59 5 0 1 7 -10 15 -18 13 -18 14 -1 15 28 0 46 -23 40 -53 l-5 -27 141 0
141 0 0 445 c-1 374 -3 445 -15 445 -18 0 -26 14 -19 34 8 21 21 20 27 -1 3
-10 5 -1 6 20 l1 37 -139 0 c-126 0 -140 -2 -145 -18 -7 -21 2 -369 10 -394 3
-10 2 -23 -3 -30 -11 -19 -12 -37 -2 -44 12 -7 12 -54 0 -54 -11 0 -25 39 -17
47 7 7 -245 299 -256 295 -4 -1 -7 2 -6 6 2 5 -22 39 -52 75 -39 47 -62 67
-78 67 -29 0 -62 17 -62 31 0 7 10 9 26 5 17 -5 23 -3 19 4 -4 6 -58 10 -141
10 l-134 0 0 -490z m74 458 c5 -9 7 -20 3 -25 -11 -10 -41 11 -45 31 -5 23 26
18 42 -6z m6 -48 c0 -5 -5 -10 -10 -10 -6 0 -4 -10 5 -23 13 -20 13 -26 1 -43
-14 -19 -15 -19 -21 1 -4 11 -11 28 -16 38 -7 13 -6 23 2 33 13 16 39 19 39 4z
m823 -22 c8 -30 -15 -46 -42 -29 -10 7 -11 13 -2 30 15 27 37 27 44 -1z m-675
-34 c1 -16 8 -39 14 -51 14 -28 -4 -53 -38 -53 -29 0 -42 20 -20 32 11 6 15
16 10 30 -5 17 -3 20 10 15 14 -6 15 -3 5 15 -10 19 -12 19 -21 5 -10 -18 -38
-23 -38 -8 0 14 52 52 64 48 6 -2 12 -17 14 -33z m704 -19 c0 -29 -13 -85 -21
-85 -16 0 -33 28 -21 35 6 4 8 16 4 27 -4 13 -1 24 7 29 17 10 30 7 31 -6z
m-57 -16 c0 -7 -8 -15 -17 -17 -18 -3 -25 18 -11 32 10 10 28 1 28 -15z m-25
-94 c0 -14 -4 -25 -10 -25 -5 0 -10 11 -10 25 0 14 5 25 10 25 6 0 10 -11 10
-25z m-627 -20 c10 -14 15 -30 12 -35 -12 -19 -30 -9 -46 25 -15 32 -15 35 0
35 9 0 24 -12 34 -25z m107 5 c0 -26 -25 -36 -45 -20 -14 11 -13 14 7 25 33
18 38 18 38 -5z m608 -3 c2 -10 -3 -17 -12 -17 -10 0 -16 9 -16 21 0 24 23 21
28 -4z m-795 -33 c9 -9 -23 -54 -39 -54 -9 0 -14 11 -14 30 0 25 4 30 23 30
13 0 26 -3 30 -6z m727 -38 c0 -16 -18 -31 -27 -22 -8 8 5 36 17 36 5 0 10 -6
10 -14z m-290 -51 c0 -16 -6 -25 -15 -25 -15 0 -21 31 -8 43 13 14 23 6 23
-18z m227 -38 c-6 -19 -22 -6 -25 20 -2 27 -2 27 13 8 8 -10 14 -23 12 -28z
m-37 -27 c0 -14 -7 -20 -22 -20 -20 0 -21 1 -3 20 10 11 20 20 22 20 1 0 3 -9
3 -20z m-460 -20 c0 -5 -16 -10 -35 -10 -19 0 -35 5 -35 10 0 6 16 10 35 10
19 0 35 -4 35 -10z m155 -60 c-5 -8 -11 -8 -17 -2 -6 6 -7 16 -3 22 5 8 11 8
17 2 6 -6 7 -16 3 -22z m-350 -27 c4 -25 9 -32 15 -23 11 17 32 -22 24 -44 -7
-18 -24 -22 -24 -5 0 5 -3 8 -8 5 -11 -7 -45 82 -38 100 9 23 23 9 31 -33z
m567 33 c13 -9 14 -16 6 -24 -8 -8 -8 -15 2 -27 12 -14 11 -18 -1 -26 -21 -13
-26 -11 -33 16 -4 14 -13 25 -21 25 -19 0 -19 9 2 32 19 21 22 22 45 4z m-42
-61 c0 -8 -4 -15 -10 -15 -5 0 -10 7 -10 15 0 8 5 15 10 15 6 0 10 -7 10 -15z
m-410 -35 c0 -11 -6 -20 -14 -20 -23 0 -46 11 -46 22 0 6 7 8 15 5 8 -4 17 -2
20 3 10 17 25 11 25 -10z m620 0 c0 -11 -7 -20 -15 -20 -8 0 -15 9 -15 20 0
11 7 20 15 20 8 0 15 -9 15 -20z m90 -30 c0 -11 -4 -20 -9 -20 -14 0 -23 18
-16 30 10 17 25 11 25 -10z m-430 -15 c0 -8 -7 -15 -15 -15 -16 0 -20 12 -8
23 11 12 23 8 23 -8z m-307 -16 c4 -15 1 -19 -11 -17 -21 4 -29 38 -9 38 8 0
17 -9 20 -21z m717 -35 c0 -7 3 -19 6 -28 4 -11 1 -16 -10 -16 -9 0 -16 5 -16
11 0 7 -8 18 -17 26 -13 10 -15 16 -5 19 6 3 12 13 12 22 1 15 3 14 15 -2 8
-11 15 -25 15 -32z m-240 0 c14 -36 12 -54 -6 -61 -24 -9 -34 9 -27 50 7 43
19 48 33 11z m-430 -21 c0 -17 -41 -73 -53 -73 -14 0 -37 19 -37 32 0 4 9 8
20 8 13 0 20 7 20 20 0 15 7 20 25 20 14 0 25 -3 25 -7z m627 -5 c5 -7 9 -20
8 -28 0 -8 9 -23 20 -32 20 -17 20 -17 0 -18 -16 0 -17 -2 -5 -10 18 -11 9
-23 -12 -15 -23 9 -41 54 -28 70 8 10 6 15 -9 20 -12 3 -21 11 -21 16 0 13 36
11 47 -3z m-797 -48 c0 -16 -5 -32 -11 -36 -8 -4 -8 -9 0 -17 15 -15 14 -42
-3 -56 -11 -9 -16 -5 -26 19 -10 25 -10 39 0 73 18 55 20 58 31 52 5 -4 9 -19
9 -35z m560 -40 c0 -11 -4 -20 -10 -20 -5 0 -14 9 -20 20 -9 17 -8 20 10 20
13 0 20 -7 20 -20z m211 -38 c6 -17 6 -29 0 -35 -15 -15 -21 -6 -28 38 -7 44
11 42 28 -3z m116 -7 c-4 -8 -11 -15 -17 -15 -14 0 -13 27 3 33 16 6 21 1 14
-18z m-899 -57 c-6 -18 -28 -21 -28 -4 0 9 7 16 16 16 9 0 14 -5 12 -12z"/>
<path d="M3203 1643 c-7 -2 -13 -14 -13 -25 0 -11 -8 -22 -20 -25 -11 -3 -20
-12 -20 -20 0 -8 5 -11 11 -7 8 5 8 1 0 -14 -21 -39 -13 -86 19 -117 17 -16
28 -35 26 -42 -3 -8 3 -13 15 -13 16 0 19 -4 15 -16 -5 -14 -4 -15 8 -5 12 11
16 7 22 -24 7 -39 -8 -85 -27 -85 -7 0 -9 13 -4 40 7 39 6 40 -24 40 -16 0
-33 5 -36 10 -17 27 -22 -3 -23 -142 -1 -165 10 -228 39 -228 17 0 32 -23 22
-34 -4 -3 -20 -6 -36 -6 -26 0 -28 -2 -16 -17 11 -13 11 -17 2 -20 -16 -6 -17
-73 -2 -73 8 0 8 -4 -1 -15 -10 -12 -6 -20 20 -44 18 -16 30 -34 26 -39 -3 -6
-2 -13 4 -17 6 -4 8 -11 4 -16 -4 -6 -16 -1 -30 12 -13 12 -21 25 -19 30 3 4
1 10 -5 14 -6 4 -10 -8 -10 -30 0 -30 3 -36 16 -31 8 3 12 2 9 -4 -4 -6 10
-10 34 -10 l40 0 -15 28 c-20 39 -19 66 4 57 14 -5 15 -4 5 6 -7 7 -13 21 -13
31 0 9 -7 21 -15 26 -16 8 -11 41 6 43 20 3 24 5 37 13 13 8 42 -9 42 -25 0
-5 -12 -9 -27 -10 -16 0 -21 -3 -13 -6 23 -8 60 -45 60 -59 0 -20 -21 -28 -31
-13 -6 10 -9 10 -9 2 0 -15 32 -33 59 -33 22 0 28 -14 11 -25 -5 -3 -10 -13
-10 -21 0 -11 14 -14 60 -14 l60 0 0 113 1 112 58 43 c32 24 70 55 86 69 34
32 23 45 147 -174 l93 -163 184 0 183 0 -14 23 c-8 12 -66 105 -129 206 -63
102 -122 186 -132 189 -11 3 -16 10 -12 20 7 18 -52 112 -71 112 -20 0 -17 14
6 35 14 13 18 25 13 43 -5 21 -3 23 14 18 16 -5 43 21 148 141 71 82 137 158
148 171 l20 22 -80 0 c-74 0 -80 -2 -93 -25 -14 -27 -30 -24 -30 6 0 16 -7 19
-55 19 -44 0 -55 -3 -55 -16 0 -9 -9 -18 -20 -21 -10 -3 -26 -16 -35 -29 -20
-30 -37 -31 -33 -1 2 12 -2 22 -9 22 -10 0 -207 -229 -299 -348 -12 -15 -25
-27 -28 -27 -3 0 -6 95 -6 210 l0 210 -65 0 c-68 0 -69 0 -65 -52 2 -31 -11
-36 -30 -13 -7 8 -18 15 -24 14 -7 0 -6 -2 2 -6 19 -8 14 -33 -8 -33 -10 0
-24 -9 -30 -20 -13 -24 -5 -26 18 -4 12 13 17 14 20 4 6 -17 -36 -52 -57 -48
-27 5 -23 42 8 82 29 37 30 37 10 57 -10 10 -20 19 -21 18 -2 0 -9 -3 -15 -6z
m177 -123 c0 -11 -7 -20 -15 -20 -8 0 -15 9 -15 20 0 11 7 20 15 20 8 0 15 -9
15 -20z m10 -81 c0 -20 -15 -26 -25 -9 -9 15 3 43 15 35 5 -3 10 -15 10 -26z
m-160 -15 c0 -9 -5 -14 -12 -12 -18 6 -21 28 -4 28 9 0 16 -7 16 -16z m675
-44 c3 -6 -1 -13 -10 -16 -19 -8 -30 0 -20 15 8 14 22 14 30 1z m-245 -51 c0
-12 -27 -11 -35 1 -11 17 5 32 21 19 8 -6 14 -15 14 -20z m-451 -55 c7 -19 10
-39 6 -42 -12 -12 -43 37 -38 58 8 29 17 25 32 -16z m136 16 c-3 -5 -13 -10
-21 -10 -8 0 -12 5 -9 10 3 6 13 10 21 10 8 0 12 -4 9 -10z m240 -11 c-4 -5
-1 -9 4 -9 6 0 11 -7 11 -15 0 -8 -7 -15 -15 -15 -9 0 -18 7 -21 15 -8 20 3
48 16 40 6 -4 8 -11 5 -16z m-178 -13 c-3 -8 -1 -17 6 -19 8 -3 4 -13 -10 -28
-28 -29 -36 -21 -28 25 5 22 13 36 22 36 9 0 13 -6 10 -14z m183 -60 c0 -15
-18 -31 -26 -23 -7 7 7 37 17 37 5 0 9 -6 9 -14z m-379 -100 c-7 -8 -19 -12
-27 -9 -13 5 -12 8 2 24 21 23 45 9 25 -15z m199 24 c0 -12 -28 -25 -36 -17
-9 9 6 27 22 27 8 0 14 -5 14 -10z m-134 -25 c4 -8 -1 -27 -11 -41 -13 -20
-19 -23 -31 -13 -19 16 -18 46 4 58 24 14 32 13 38 -4z m314 2 c0 -7 -7 -22
-15 -33 -14 -18 -14 -18 -15 7 0 14 3 29 7 32 11 11 23 8 23 -6z m286 -1 c10
-8 16 -17 13 -20 -3 -4 -17 2 -30 13 -27 23 -13 28 17 7z m-678 -34 c2 -7 -3
-12 -12 -12 -9 0 -16 7 -16 16 0 17 22 14 28 -4z m137 -3 c4 -11 4 -23 0 -27
-7 -7 -25 17 -25 36 0 20 18 14 25 -9z m165 -20 c0 -24 -4 -38 -10 -34 -5 3
-10 22 -10 41 0 19 5 34 10 34 6 0 10 -18 10 -41z m402 -1 c6 -16 -1 -38 -12
-38 -11 0 -21 30 -14 41 8 13 21 11 26 -3z m-622 -33 c0 -25 -4 -35 -16 -35
-8 0 -13 4 -10 9 8 12 -41 20 -53 8 -13 -13 -31 0 -31 24 0 22 1 22 53 10 29
-7 37 -6 37 5 0 8 5 14 10 14 6 0 10 -16 10 -35z m585 -15 c-3 -5 -13 -10 -21
-10 -8 0 -12 5 -9 10 3 6 13 10 21 10 8 0 12 -4 9 -10z m-585 -49 c12 -23 13
-61 2 -61 -12 0 -44 59 -37 70 10 16 23 12 35 -9z m112 -23 c7 -19 -3 -88 -13
-88 -15 0 -19 19 -13 59 7 41 18 53 26 29z m-9 -108 c8 0 8 -3 0 -11 -13 -13
-43 -5 -43 12 0 6 7 8 16 5 9 -3 21 -6 27 -6z m-169 -51 c-8 -13 -24 -1 -24
18 0 13 3 13 15 3 8 -7 12 -16 9 -21z m667 -36 c5 -14 8 -33 7 -42 -3 -13 -8
-11 -28 9 -14 14 -28 24 -32 23 -5 -2 -8 6 -8 17 0 32 48 27 61 -7z m149 -17
c0 -14 -29 -31 -38 -21 -6 6 18 35 29 35 5 0 9 -6 9 -14z"/>
<path d="M3815 1640 c-8 -13 5 -13 25 0 13 8 13 10 -2 10 -9 0 -20 -4 -23 -10z"/>
<path d="M4391 1516 c-1 -80 3 -137 9 -141 6 -3 10 -15 10 -26 0 -11 -4 -17
-10 -14 -6 4 -10 -15 -10 -49 0 -43 3 -54 14 -50 7 3 16 -2 20 -11 4 -12 0
-19 -14 -22 -13 -4 -20 -14 -20 -30 0 -13 4 -21 10 -18 6 4 10 -5 10 -20 0
-15 -4 -24 -10 -20 -6 4 -10 -7 -10 -24 0 -17 5 -31 10 -31 6 0 10 -11 10 -25
0 -14 -5 -25 -11 -25 -8 0 -7 -6 2 -17 11 -13 11 -17 2 -20 -10 -4 -13 -43
-13 -154 l0 -149 95 0 c89 0 95 1 95 21 0 14 5 19 18 17 9 -2 16 -11 16 -21
-1 -12 6 -17 27 -17 l29 0 0 187 c0 145 -3 184 -12 175 -17 -17 -38 -15 -38 3
0 8 5 15 12 15 6 0 1 11 -12 25 -24 26 -21 47 3 26 11 -8 17 -7 29 7 9 9 17
23 20 30 2 9 19 -3 47 -33 l42 -46 35 20 c19 12 37 21 38 21 9 0 14 -94 6
-110 -13 -24 5 -37 18 -14 8 15 11 15 36 -1 31 -21 36 -50 6 -42 -12 3 -20 0
-20 -7 0 -24 13 -25 38 -6 13 11 31 20 38 20 22 0 16 -21 -6 -27 -19 -5 -20
-6 -3 -19 11 -8 13 -13 6 -14 -23 0 -14 -36 16 -64 20 -19 31 -24 36 -16 9 15
25 -6 25 -33 0 -10 14 -36 32 -58 l31 -39 139 0 138 0 0 263 c0 197 -3 266
-12 276 -10 11 -10 14 0 18 9 4 12 56 12 214 l0 209 -146 0 -146 0 4 -245 c2
-135 3 -245 1 -245 -1 0 -44 48 -94 107 -51 59 -99 108 -107 109 -25 4 -64 47
-50 55 9 6 7 13 -7 29 l-20 22 -5 -28 c-7 -42 -25 -26 -25 22 0 36 -8 50 -58
108 l-59 66 -133 0 -133 0 -1 -134z m97 12 c-4 -27 -28 -36 -28 -10 0 20 8 32
22 32 5 0 8 -10 6 -22z m154 -20 c-9 -9 -12 -7 -12 12 0 19 3 21 12 12 9 -9 9
-15 0 -24z m-73 -64 c-17 -21 -26 -17 -31 14 -3 15 -8 36 -13 47 -5 14 3 10
25 -13 25 -27 29 -36 19 -48z m121 -16 c0 -16 -4 -28 -9 -28 -11 0 -21 49 -14
68 8 20 23 -5 23 -40z m-150 -38 c0 -6 11 -20 25 -32 34 -30 31 -37 -10 -24
-29 9 -35 16 -35 38 0 16 5 28 10 28 6 0 10 -5 10 -10z m290 -28 c0 -4 -5 -13
-12 -20 -9 -9 -8 -12 5 -12 9 0 17 -3 18 -7 6 -38 5 -73 0 -73 -4 0 -12 5 -19
12 -9 9 -15 9 -24 0 -22 -22 -36 -13 -36 24 0 25 7 44 24 60 23 24 44 31 44
16z m-300 -59 l0 -27 16 23 c11 15 20 19 26 13 24 -24 -24 -81 -58 -68 -14 6
-19 42 -8 70 10 25 24 19 24 -11z m180 -3 c26 -26 25 -36 -2 -54 -27 -16 -66
-15 -77 3 -4 6 -15 9 -24 5 -27 -10 -19 15 8 28 14 6 24 17 21 24 -12 32 41
27 74 -6z m155 -141 c-8 -12 -35 -12 -35 0 0 11 22 20 33 14 4 -2 5 -9 2 -14z
m385 -34 c0 -9 -9 -15 -22 -15 -19 0 -20 -2 -8 -11 11 -8 12 -12 3 -16 -7 -2
-13 -15 -13 -27 0 -38 -13 -38 -26 0 -15 43 -11 58 19 72 31 15 47 14 47 -3z
m-715 -25 c3 -5 13 -6 22 -3 12 5 15 2 11 -9 -4 -8 -2 -21 2 -29 12 -18 -16
-49 -43 -49 -19 0 -19 1 -4 18 23 25 21 31 -8 42 -16 6 -23 14 -19 25 7 17 30
20 39 5z m509 -46 c10 -26 -5 -39 -21 -19 -7 11 -13 22 -13 27 0 15 28 8 34
-8z m-389 -205 c10 -15 -1 -23 -20 -15 -9 3 -13 10 -10 16 8 13 22 13 30 -1z
m-165 -19 c0 -11 -4 -20 -10 -20 -5 0 -10 9 -10 20 0 11 5 20 10 20 6 0 10 -9
10 -20z"/>
<path d="M6785 1640 c-3 -6 1 -7 9 -4 18 7 21 14 7 14 -6 0 -13 -4 -16 -10z"/>
<path d="M6841 1638 c-1 -10 4 -18 10 -18 5 0 8 -4 5 -9 -4 -5 0 -11 6 -14 7
-2 -4 -11 -24 -20 -44 -19 -47 -30 -14 -45 21 -9 23 -8 19 8 -6 24 12 34 30
15 9 -8 23 -15 31 -15 29 0 17 -17 -16 -24 -26 -5 -30 -9 -18 -16 12 -8 13
-13 3 -30 -18 -27 -16 -35 3 -19 13 10 17 10 25 -2 5 -8 9 -9 9 -2 0 8 6 8 25
0 30 -15 31 -23 4 -37 -15 -8 -24 -8 -33 -1 -8 6 -20 9 -29 6 -9 -4 -23 4 -36
21 -13 16 -21 21 -21 12 0 -8 14 -24 30 -37 17 -12 28 -26 25 -32 -4 -5 -3 -8
2 -7 17 6 17 -15 0 -26 -14 -8 -20 -8 -28 4 -9 12 -10 12 -5 -3 3 -10 9 -36
12 -58 4 -21 10 -39 15 -39 13 0 11 44 -3 58 -10 10 -8 14 8 18 12 3 27 17 33
31 6 13 17 23 23 21 20 -7 20 -26 1 -31 -15 -4 -14 -5 4 -6 12 0 24 -7 27 -13
3 -7 3 -1 0 15 -7 30 1 33 54 18 25 -8 32 -7 29 2 -2 7 0 20 5 29 7 15 4 17
-17 16 -14 -1 -25 -7 -25 -13 0 -6 -9 -11 -20 -12 -16 -1 -20 4 -20 26 0 34 9
44 27 30 16 -14 43 5 43 31 0 10 16 32 36 48 31 26 35 34 29 60 -5 23 -10 29
-26 25 -22 -6 -26 12 -4 21 8 3 15 10 15 16 0 6 -40 10 -105 10 -63 0 -105 -4
-105 -10 0 -14 -27 -12 -33 3 -3 7 -6 5 -6 -5z m134 -20 c0 -13 -4 -29 -9 -37
-12 -19 -24 3 -18 35 6 30 28 32 27 2z m75 -57 c0 -20 -17 -37 -27 -28 -7 8 7
47 18 47 5 0 9 -9 9 -19z m-56 -13 c-5 -13 -7 -36 -6 -51 1 -18 -3 -27 -11
-24 -16 5 -20 38 -8 70 13 33 36 37 25 5z"/>
<path d="M7380 1645 c0 -14 31 -64 42 -68 10 -3 9 -9 -3 -22 -15 -16 -19 -15
-58 4 -43 23 -48 19 -42 -27 1 -8 -2 -19 -8 -25 -5 -7 -13 -35 -18 -63 -8 -39
-7 -56 4 -70 19 -26 16 -37 -7 -31 -13 3 -20 0 -20 -9 0 -8 6 -11 15 -8 19 8
20 -10 1 -25 -11 -9 -15 -9 -19 1 -4 10 -6 10 -6 -1 -1 -8 17 -32 38 -53 37
-36 43 -38 83 -32 56 8 70 21 18 16 -43 -4 -48 2 -25 35 8 12 12 28 9 36 -3 8
0 18 6 22 6 4 8 20 4 41 -5 27 -3 34 10 34 9 0 16 -8 16 -19 0 -11 4 -21 9
-23 5 -1 7 -15 4 -30 -4 -19 -10 -25 -22 -21 -13 4 -13 3 -2 -5 12 -9 12 -13
2 -26 -17 -20 -11 -20 25 -1 23 11 31 12 40 2 7 -6 31 -100 54 -207 23 -107
45 -196 50 -198 5 -2 7 -17 3 -33 -4 -24 -3 -28 10 -23 13 5 15 0 10 -30 -3
-19 -2 -43 2 -53 4 -10 7 -28 6 -40 -2 -23 -2 -23 138 -23 128 0 141 2 141 18
1 16 1 16 14 0 21 -28 53 -23 60 10 4 15 9 35 12 44 4 13 0 15 -18 11 -13 -4
-26 -11 -30 -17 -5 -8 -10 -8 -18 0 -15 15 27 56 54 52 22 -3 27 11 50 128 12
68 12 71 -5 67 -21 -6 -25 7 -7 25 7 7 16 8 23 2 8 -7 15 3 22 35 8 35 7 47
-3 56 -15 12 1 70 18 66 6 -1 13 4 16 12 3 8 0 11 -7 7 -7 -5 -11 2 -11 18 0
28 -9 33 -28 14 -8 -8 -15 -8 -27 2 -18 15 -20 40 -2 40 6 0 3 6 -8 12 -11 6
-28 20 -37 31 -20 26 -8 57 23 57 11 0 17 5 14 10 -3 6 -15 10 -26 10 -10 0
-19 4 -19 9 0 22 13 41 29 41 9 0 22 5 29 12 9 9 12 6 12 -14 0 -15 -6 -29
-12 -31 -7 -3 -3 -6 10 -6 13 -1 21 -5 17 -10 -3 -6 7 -9 22 -8 15 1 28 -2 28
-8 0 -5 6 -19 13 -30 12 -18 13 -17 8 12 -3 20 -1 33 7 37 9 3 9 5 0 5 -18 1
-16 21 2 21 8 0 15 6 15 14 0 8 3 21 6 29 3 10 -1 17 -13 20 -17 4 -17 4 2 12
23 10 35 24 35 42 0 10 -6 10 -25 1 -31 -14 -40 -6 -25 21 11 22 40 29 40 10
0 -5 5 -7 10 -4 6 4 8 15 5 26 -4 12 -2 19 7 20 7 0 3 4 -9 9 -31 13 -29 28 5
32 15 2 -43 5 -130 6 l-156 2 -11 -50 c-14 -67 -14 -70 7 -70 29 0 34 -11 16
-37 -12 -19 -13 -28 -4 -38 12 -15 6 -35 -11 -35 -5 0 -9 6 -9 14 0 8 -7 16
-15 20 -10 3 -15 -1 -15 -13 0 -11 -3 -27 -6 -35 -5 -14 1 -13 41 4 l47 20 -4
-25 c-3 -14 -2 -28 2 -30 8 -5 4 -86 -5 -112 -9 -26 -25 -12 -25 20 0 26 -6
36 -25 45 -14 6 -25 16 -25 22 0 6 5 8 12 4 7 -4 8 -3 4 4 -4 7 -9 12 -12 12
-12 0 -32 -72 -50 -172 -10 -60 -22 -108 -27 -108 -4 0 -3 -10 4 -21 9 -17 8
-20 -3 -17 -7 3 -13 18 -14 34 0 16 -4 48 -8 71 -7 38 -10 42 -27 32 -11 -5
-23 -8 -27 -5 -4 3 -14 1 -22 -5 -12 -7 -10 -9 7 -9 32 0 38 -18 9 -26 -28 -7
-49 2 -41 17 4 5 0 9 -7 9 -7 0 -2 10 12 24 14 12 35 34 48 48 l24 26 -33 151
c-27 122 -37 151 -50 151 -12 0 -16 -6 -12 -20 4 -13 0 -20 -9 -20 -22 0 -51
37 -44 55 3 9 3 27 0 41 -5 18 -13 24 -33 24 -15 0 -32 -5 -38 -11 -8 -8 -13
-8 -17 0 -4 6 -18 11 -32 11 -17 0 -24 -5 -24 -19 0 -31 -19 -35 -30 -7 -9 23
-20 35 -20 21z m545 -15 c3 -5 15 -10 26 -10 21 0 23 -8 10 -29 -12 -19 -44
-6 -58 24 -9 20 -8 25 2 25 8 0 17 -4 20 -10z m-399 -16 c-4 -10 1 -22 11 -30
13 -10 14 -13 4 -14 -11 0 -11 -3 -1 -15 7 -8 8 -19 3 -27 -4 -7 -8 -22 -8
-33 0 -16 -8 -21 -42 -23 -43 -3 -60 12 -28 24 14 6 13 8 -2 20 -17 13 -16 15
10 39 19 17 23 25 13 25 -9 0 -16 5 -16 10 0 6 9 10 20 10 11 0 19 3 19 8 -3
15 1 22 12 22 6 0 8 -7 5 -16z m518 10 c21 -8 20 -24 -1 -40 -26 -19 -30 -17
-30 16 0 31 4 34 31 24z m-69 -63 c-3 -6 -14 -11 -23 -11 -15 1 -15 2 2 15 21
16 32 13 21 -4z m-385 -56 c0 -7 6 -16 13 -18 9 -4 8 -8 -3 -16 -10 -7 -11
-11 -2 -11 6 0 12 -7 12 -15 0 -8 -5 -15 -10 -15 -7 0 -7 -6 0 -20 9 -16 8
-20 -5 -20 -9 0 -22 15 -30 33 -12 27 -12 34 0 43 8 6 10 15 5 24 -10 16 -2
42 11 34 5 -3 9 -11 9 -19z m-155 -6 c8 -23 1 -34 -14 -24 -13 8 -15 45 -2 45
5 0 13 -9 16 -21z m665 -36 c-1 -29 -15 -53 -31 -53 -23 0 -25 23 -3 44 16 17
34 21 34 9z m-750 -48 c0 -8 -7 -15 -15 -15 -8 0 -15 7 -15 15 0 8 7 15 15 15
8 0 15 -7 15 -15z m250 -55 c0 -5 -7 -10 -15 -10 -8 0 -15 5 -15 10 0 6 7 10
15 10 8 0 15 -4 15 -10z m6 -37 c3 -10 12 -32 21 -49 12 -25 12 -36 4 -53 -15
-28 -27 -27 -47 5 -12 18 -14 28 -6 36 8 8 8 17 1 30 -12 22 -5 48 11 48 6 0
13 -8 16 -17z m-56 -36 c0 -13 9 -40 20 -62 11 -22 20 -41 20 -42 0 -9 -18 1
-42 22 -25 21 -27 28 -22 69 7 46 24 55 24 13z m-180 -6 c0 -5 -7 -14 -16 -22
-13 -10 -17 -10 -24 1 -5 8 -6 18 -4 22 7 11 44 10 44 -1z m568 -72 c-4 -32
-26 -35 -34 -4 -4 18 -2 30 7 36 19 11 31 -4 27 -32z m112 -9 c0 -13 -28 -25
-38 -16 -3 4 0 11 8 16 20 13 30 12 30 0z m-432 -53 c2 -10 -3 -17 -12 -17
-10 0 -16 9 -16 21 0 24 23 21 28 -4z m310 -22 c-1 -40 -4 -45 -24 -45 -23 0
-23 0 -7 45 8 25 19 45 23 45 5 0 8 -20 8 -45z m-323 -22 c9 -13 9 -22 -3 -45
l-14 -30 -14 24 c-26 44 -27 50 -13 59 20 13 30 11 44 -8z m308 -66 c-3 -5
-10 -4 -15 1 -6 6 -7 16 -3 22 6 9 9 9 16 -1 4 -7 5 -17 2 -22z m-29 -16 c17
-19 17 -20 -3 -30 -41 -22 -93 -8 -75 20 4 8 9 7 15 -2 7 -11 10 -9 15 9 8 27
25 28 48 3z m-129 -31 c14 -16 16 -23 7 -32 -9 -9 -17 -7 -32 10 -11 11 -20
26 -20 32 0 17 26 11 45 -10z m182 -15 c3 -9 3 -18 1 -21 -9 -9 -38 8 -38 22
0 19 29 18 37 -1z m53 -25 c0 -5 -7 -10 -15 -10 -8 0 -15 5 -15 10 0 6 7 10
15 10 8 0 15 -4 15 -10z m-380 -62 c0 -5 -4 -8 -8 -8 -15 0 -32 24 -32 45 0
19 2 18 20 -5 11 -14 20 -28 20 -32z m213 39 c3 -8 1 -20 -4 -28 -11 -19 -34
3 -26 25 8 20 23 21 30 3z m157 -3 c0 -5 -20 -46 -26 -53 -2 -2 -12 7 -23 20
-19 24 -19 24 2 31 29 8 47 9 47 2z m-186 -59 c6 -11 18 -25 26 -32 9 -7 10
-12 4 -13 -7 0 -15 -10 -18 -22 l-6 -23 -14 24 c-8 14 -11 31 -8 39 3 8 -2 19
-11 24 -10 5 -17 14 -17 19 0 17 32 5 44 -16z m96 -75 c0 -11 -4 -20 -10 -20
-5 0 -10 9 -10 20 0 11 5 20 10 20 6 0 10 -9 10 -20z m-210 -26 c0 -8 -6 -14
-14 -14 -16 0 -39 24 -30 32 10 10 44 -4 44 -18z m73 -8 c10 -8 14 -17 9 -20
-5 -3 -17 3 -27 14 -21 23 -9 26 18 6z"/>
<path d="M8380 1636 c0 -7 -7 -19 -15 -26 -21 -17 -19 -48 2 -46 15 1 18 -11
20 -81 1 -46 0 -83 -4 -83 -3 0 -12 8 -19 18 -12 15 -13 11 -14 -30 0 -29 6
-52 16 -62 8 -9 12 -20 9 -26 -3 -5 -1 -10 5 -10 6 0 27 -7 47 -15 26 -11 33
-19 26 -26 -8 -8 -17 -7 -33 1 -23 12 -70 6 -70 -10 0 -5 7 -7 16 -3 9 3 20 0
25 -8 15 -24 10 -32 -16 -27 l-25 5 0 -103 c0 -86 3 -104 15 -104 8 0 15 -5
15 -10 0 -6 -7 -13 -15 -16 -10 -4 -15 -20 -14 -53 0 -36 2 -41 9 -25 12 30
29 39 36 19 4 -9 -2 -29 -14 -45 -18 -24 -19 -29 -6 -34 9 -4 12 -11 7 -18 -4
-7 -8 -17 -8 -23 -1 -5 -6 -9 -13 -8 -8 2 -12 -15 -12 -57 l0 -60 143 0 143 0
-1 236 c0 130 2 237 5 239 3 2 79 -83 170 -187 91 -105 185 -212 209 -239 l44
-49 124 0 c118 0 123 1 123 21 0 11 5 17 10 14 6 -4 10 37 10 115 0 110 -1
120 -16 106 -19 -20 -24 -20 -24 0 0 9 9 18 20 21 20 5 20 14 20 354 l0 349
-141 0 -140 0 5 -152 c3 -84 8 -186 11 -226 4 -50 2 -72 -5 -67 -6 3 -10 -3
-10 -14 0 -31 -11 -26 -57 26 -39 45 -43 47 -59 31 -16 -16 -16 -17 4 -11 29
7 29 -21 0 -41 -22 -16 -43 -12 -32 5 3 5 -1 21 -10 34 -21 31 -20 42 2 48 16
4 16 5 0 6 -10 0 -18 6 -18 12 0 6 9 9 20 6 11 -3 18 -1 14 4 -3 5 -12 9 -20
9 -8 0 -14 7 -14 16 0 8 -23 42 -52 75 -43 50 -56 59 -75 54 -16 -4 -25 0 -29
10 -3 8 -11 12 -18 8 -6 -3 -8 -3 -4 2 4 4 3 14 -3 22 -9 9 -8 13 0 13 18 0
13 25 -11 55 -21 27 -22 27 -29 6 -5 -11 -16 -21 -24 -21 -13 0 -15 6 -10 33
4 17 8 36 9 41 0 5 -5 11 -13 14 -8 2 -11 0 -7 -6 3 -6 -5 -28 -20 -49 -21
-30 -24 -45 -20 -75 9 -54 -8 -47 -45 17 -33 58 -38 61 -70 44 -16 -8 -18 -13
-8 -25 9 -11 8 -14 -9 -14 -15 0 -20 -5 -16 -15 4 -8 2 -15 -4 -15 -14 0 -22
25 -22 71 0 38 13 52 23 27 4 -10 6 -10 6 0 1 6 10 12 21 12 11 0 20 7 20 15
0 11 -12 15 -45 15 -32 0 -45 -4 -45 -14z m888 -77 c-6 -18 -14 -27 -20 -21
-11 11 8 65 21 57 6 -3 6 -17 -1 -36z m-643 -40 c-8 -12 -35 -12 -35 0 0 11
22 20 33 14 4 -2 5 -9 2 -14z m538 -47 c-8 -56 -23 -63 -23 -11 0 25 3 49 6
52 14 14 22 -5 17 -41z m-655 -6 c13 -34 13 -39 -2 -54 -12 -13 -18 -13 -28
-4 -9 9 -9 15 0 24 9 9 7 14 -6 24 -14 11 -15 15 -3 23 8 5 10 14 6 21 -5 8
-3 11 5 8 7 -2 19 -21 28 -42z m142 24 c0 -11 5 -20 10 -20 6 0 10 -4 10 -10
0 -5 -9 -10 -20 -10 -17 0 -19 -3 -10 -19 12 -24 13 -91 1 -91 -4 0 -12 15
-18 33 -6 22 -14 31 -26 29 -15 -3 -17 3 -11 40 6 42 25 68 51 68 7 0 13 -9
13 -20z m-222 -47 c-5 -25 -28 -28 -28 -4 0 12 6 21 16 21 9 0 14 -7 12 -17z
m40 -61 c9 -7 8 -13 -8 -27 -24 -21 -35 -15 -25 14 7 23 13 25 33 13z m697 -1
c3 -5 1 -12 -5 -16 -6 -4 -8 -11 -5 -16 4 -5 -1 -9 -9 -9 -9 0 -16 8 -16 18 0
29 22 43 35 23z m-585 -32 c0 -16 24 -36 38 -31 6 2 12 -1 12 -7 0 -6 -4 -11
-10 -11 -5 0 -10 -4 -10 -10 0 -5 6 -10 14 -10 11 0 11 -9 3 -44 l-10 -44 -30
21 c-21 16 -31 18 -34 10 -3 -7 -9 -13 -14 -13 -17 0 -9 31 15 57 l25 27 -26
24 c-25 23 -26 25 -8 38 19 14 35 10 35 -7z m174 2 c3 -5 0 -13 -7 -19 -15
-13 -42 1 -33 17 9 13 33 15 40 2z m-304 -31 c0 -7 6 -7 19 0 29 15 31 13 27
-30 -4 -48 -14 -63 -22 -33 -3 12 -14 23 -25 26 -19 5 -28 47 -9 47 6 0 10 -5
10 -10z m415 -59 c6 -34 4 -42 -6 -39 -9 3 -15 23 -17 54 -4 60 13 49 23 -15z
m233 -125 c-2 -17 -10 -21 -38 -21 -26 0 -36 5 -38 18 -3 16 -1 17 16 8 16 -9
21 -7 25 9 7 28 39 15 35 -14z m-492 2 c4 -6 3 -13 -3 -15 -6 -2 -9 -12 -6
-22 5 -20 -12 -37 -21 -22 -8 12 4 71 15 71 4 0 11 -5 15 -12z m279 -10 c7
-16 17 -22 33 -20 22 3 31 -12 13 -22 -18 -12 -80 32 -81 57 0 17 26 5 35 -15z
m-477 -6 c3 -9 -2 -13 -14 -10 -9 1 -19 9 -22 16 -3 9 2 13 14 10 9 -1 19 -9
22 -16z m802 -20 c0 -24 -1 -25 -16 -10 -10 9 -14 24 -10 33 9 23 26 9 26 -23z
m-135 -12 c3 -5 1 -17 -4 -27 -5 -10 -12 -26 -15 -35 -9 -31 -22 -20 -23 19
-1 43 25 70 42 43z m-575 -20 c0 -21 -15 -27 -25 -10 -7 12 2 30 16 30 5 0 9
-9 9 -20z m404 -36 c10 -25 7 -34 -9 -34 -9 0 -15 9 -15 25 0 28 15 34 24 9z
m246 -39 c0 -8 -4 -15 -10 -15 -5 0 -10 7 -10 15 0 8 5 15 10 15 6 0 10 -7 10
-15z m-4 -49 c3 -14 3 -30 -1 -35 -3 -6 1 -11 9 -11 9 0 16 -5 16 -11 0 -6
-12 -9 -27 -7 -30 3 -39 23 -29 64 8 31 24 31 32 0z m-117 -98 c-11 -19 -14
-20 -17 -6 -2 9 2 27 9 40 11 19 14 20 17 6 2 -9 -2 -27 -9 -40z m-461 -20
c-2 -36 -23 -68 -45 -68 -15 0 -17 16 -3 25 6 3 10 15 10 25 0 16 24 50 36 50
2 0 3 -15 2 -32z m639 -22 c-8 -19 -37 -21 -37 -3 0 7 5 18 12 25 15 15 33 -1
25 -22z m70 -12 c8 -22 -15 -43 -27 -24 -5 8 -10 21 -10 28 0 17 30 15 37 -4z"/>
<path d="M8500 1625 c13 -14 25 -25 27 -25 9 0 -33 49 -41 50 -5 0 1 -11 14
-25z"/>
<path d="M8520 1646 c0 -2 7 -9 15 -16 12 -10 15 -10 15 4 0 9 -7 16 -15 16
-8 0 -15 -2 -15 -4z"/>
<path d="M7332 1618 c2 -12 11 -24 21 -26 24 -5 22 25 -4 38 -18 10 -20 9 -17
-12z"/>
<path d="M7607 1600 c3 -11 7 -20 9 -20 2 0 4 9 4 20 0 11 -4 20 -9 20 -5 0
-7 -9 -4 -20z"/>
<path d="M7072 1487 c-10 -12 -11 -21 -2 -37 14 -26 30 -22 42 9 6 18 5 22 -6
18 -9 -4 -16 1 -18 10 -3 15 -4 15 -16 0z"/>
<path d="M6810 1481 c0 -5 9 -7 20 -4 11 3 20 7 20 9 0 2 -9 4 -20 4 -11 0
-20 -4 -20 -9z"/>
<path d="M7096 1376 c7 -19 38 -22 32 -3 -3 6 -12 13 -21 15 -12 2 -15 -1 -11
-12z"/>
<path d="M7136 1334 c-5 -13 -9 -14 -21 -4 -9 7 -15 8 -15 2 0 -9 -39 -19
-103 -26 -15 -1 -33 -8 -40 -15 -9 -9 -3 -11 31 -5 49 8 54 -2 17 -42 -29 -31
-32 -44 -10 -44 8 0 15 -7 15 -15 0 -19 -11 -19 -35 -1 -15 11 -23 11 -43 0
-13 -7 -31 -10 -40 -6 -12 4 -14 1 -9 -12 4 -10 7 -23 8 -29 0 -7 4 -2 9 11 5
12 14 22 20 22 15 0 12 -26 -5 -44 -20 -19 -19 -45 1 -53 11 -4 14 -13 10 -29
-6 -22 2 -70 25 -156 7 -29 13 -35 29 -31 20 5 28 -11 10 -22 -6 -4 -5 -15 2
-30 8 -18 8 -28 0 -38 -8 -9 -8 -25 0 -55 l10 -42 121 0 c116 0 119 1 104 18
-35 39 -12 44 31 7 17 -14 40 -25 52 -25 20 0 22 4 17 36 -5 31 -4 34 9 23 8
-6 16 -10 18 -8 1 2 10 38 18 79 14 66 15 115 5 239 -3 37 19 36 28 -1 l7 -33
14 50 c8 28 15 71 17 97 1 27 5 48 10 48 4 0 7 5 7 11 0 7 -9 6 -24 -4 -31
-21 -88 -31 -131 -23 -29 6 -35 11 -35 32 0 40 -17 19 -30 -38 -18 -82 -21
-89 -31 -83 -5 4 -9 15 -9 26 0 25 -25 35 -45 19 -9 -7 -18 -10 -22 -7 -9 10
17 37 36 37 13 0 16 7 13 34 -3 26 -8 33 -19 29 -13 -5 -14 3 -8 55 4 39 3 62
-3 62 -5 0 -13 -7 -16 -16z m-6 -40 c0 -8 -4 -14 -9 -14 -5 0 -11 -12 -13 -27
-2 -21 -9 -29 -26 -31 -22 -3 -23 -1 -17 30 10 52 65 88 65 42z m-130 -145 c0
-5 4 -8 9 -4 10 6 41 -21 41 -36 0 -14 -28 -11 -33 4 -4 9 -6 9 -6 0 -1 -6 4
-15 9 -18 15 -9 12 -25 -5 -25 -8 0 -15 6 -15 14 0 7 -6 19 -14 25 -8 7 -12
21 -9 31 6 21 23 28 23 9z m409 -12 c14 -18 4 -27 -28 -27 -24 1 -24 2 -9 14
10 7 15 16 11 19 -3 4 -2 7 4 7 6 0 16 -6 22 -13z m-429 -43 c0 -10 -31 -36
-37 -31 -10 10 6 37 22 37 8 0 15 -3 15 -6z m156 -60 c-5 -13 -10 -14 -18 -6
-6 6 -8 18 -4 28 5 13 10 14 18 6 6 -6 8 -18 4 -28z m-91 6 c3 -5 0 -10 -8
-10 -16 0 -27 -29 -27 -72 0 -16 -6 -28 -12 -28 -9 0 -9 -3 1 -9 12 -8 12 -12
-2 -25 -14 -15 -37 -22 -37 -11 0 19 24 112 31 121 6 8 4 14 -6 18 -8 3 -15
10 -15 16 0 13 67 13 75 0z m80 -51 c-4 -11 -2 -19 4 -19 6 0 11 -4 11 -10 0
-18 -50 -11 -57 8 -4 9 -13 21 -22 26 -13 8 -13 10 4 16 10 4 29 5 42 2 18 -3
22 -9 18 -23z m105 -9 c0 -5 -7 -10 -15 -10 -8 0 -15 5 -15 10 0 6 7 10 15 10
8 0 15 -4 15 -10z m-97 -55 c-1 -5 -13 -12 -25 -13 -13 -2 -28 -8 -35 -14 -7
-5 -17 -7 -23 -3 -14 9 -13 32 3 39 20 8 82 2 80 -9z m11 -41 c16 -15 13 -34
-4 -34 -11 0 -40 29 -40 41 0 14 27 10 44 -7z m-74 -24 c0 -19 -11 -26 -23
-14 -8 8 3 34 14 34 5 0 9 -9 9 -20z m56 -15 c18 -15 18 -15 -5 -13 -14 2 -26
9 -29 16 -5 17 10 15 34 -3z m194 -36 c0 -10 -4 -19 -9 -19 -12 0 -23 29 -15
41 8 14 24 0 24 -22z m-50 12 c0 -13 -29 -35 -37 -28 -7 8 15 37 28 37 5 0 9
-4 9 -9z m34 -73 c9 -33 8 -38 -8 -38 -20 0 -29 16 -21 40 8 26 21 25 29 -2z
m-76 -8 c3 -7 0 -10 -6 -6 -6 3 -19 -6 -30 -20 -20 -29 -42 -26 -42 7 0 12 7
19 19 19 11 0 23 5 26 11 9 13 27 7 33 -11z"/>
<path d="M6995 1330 c3 -5 8 -10 11 -10 2 0 4 5 4 10 0 6 -5 10 -11 10 -5 0
-7 -4 -4 -10z"/>
<path d="M7985 1329 c-4 -6 -5 -12 -2 -15 2 -3 7 2 10 11 7 17 1 20 -8 4z"/>
<path d="M6906 1292 c-3 -6 -1 -14 5 -17 15 -10 25 3 12 16 -7 7 -13 7 -17 1z"/>
<path d="M9768 1293 c7 -3 16 -2 19 1 4 3 -2 6 -13 5 -11 0 -14 -3 -6 -6z"/>
<path d="M8033 1266 c0 -12 3 -13 14 -4 15 12 15 12 32 -17 11 -19 11 -19 9 5
-2 19 -10 26 -29 28 -18 2 -26 -2 -26 -12z"/>
<path d="M6934 1237 c0 -15 6 -23 14 -20 16 7 15 18 -2 32 -11 10 -14 7 -12
-12z"/>
<path d="M6870 1210 c0 -5 5 -10 11 -10 5 0 7 5 4 10 -3 6 -8 10 -11 10 -2 0
-4 -4 -4 -10z"/>
<path d="M4788 1033 c7 -3 16 -2 19 1 4 3 -2 6 -13 5 -11 0 -14 -3 -6 -6z"/>
<path d="M3269 697 c6 -8 8 -17 4 -20 -3 -4 6 -7 21 -7 18 0 26 5 24 13 -3 6
-10 12 -15 12 -6 0 -15 3 -19 8 -13 13 -27 8 -15 -6z"/>
<path d="M7397 243 c-4 -3 -7 -11 -7 -17 0 -6 5 -5 12 2 6 6 9 14 7 17 -3 3
-9 2 -12 -2z"/>
<path d="M2410 230 c0 -5 -7 -10 -15 -10 -8 0 -15 -4 -15 -9 0 -5 -10 -12 -22
-14 l-23 -4 23 -2 c17 -1 22 -7 22 -28 0 -32 12 -23 16 13 2 14 11 35 20 45
10 11 12 19 6 19 -7 0 -12 -4 -12 -10z"/>
<path d="M2284 169 c-5 -8 -2 -11 7 -7 12 5 15 -1 13 -27 -3 -29 0 -33 26 -37
16 -2 27 -1 24 4 -3 4 -12 8 -20 8 -10 0 -13 10 -12 32 2 23 -2 33 -14 36 -9
2 -20 -2 -24 -9z"/>
<path d="M7392 86 c-18 -7 -29 -15 -26 -19 4 -4 -9 -7 -28 -7 -32 0 -36 -3
-40 -30 l-5 -31 53 2 52 2 -3 34 c-3 30 -1 34 26 40 33 6 50 24 22 22 -10 -1
-33 -7 -51 -13z"/>
<path d="M2427 56 c-3 -8 2 -16 14 -19 22 -6 25 6 5 22 -10 9 -15 8 -19 -3z"/>
<path d="M6932 42 c-19 -6 -14 -22 8 -22 11 0 20 -4 20 -10 0 -15 34 -12 56 6
18 15 18 15 -3 9 -13 -4 -23 -2 -23 3 0 11 -39 21 -58 14z"/>
</g>
</svg>
